<?xml version="1.0" standalone="no"?>
<!DOCTYPE svg PUBLIC "-//W3C//DTD SVG 20010904//EN"
 "http://www.w3.org/TR/2001/REC-SVG-20010904/DTD/svg10.dtd">
<svg version="1.0" xmlns="http://www.w3.org/2000/svg"
 width="767.000000pt" height="494.000000pt" viewBox="0 0 767.000000 494.000000"
 preserveAspectRatio="xMidYMid meet">

<g transform="translate(0.000000,494.000000) scale(0.100000,-0.100000)"
fill="#000000" stroke="none">
<path d="M82 4917 c-12 -13 -22 -32 -22 -43 0 -11 -13 -30 -29 -42 l-30 -22 0
-155 c0 -94 3 -155 9 -155 6 0 10 -5 10 -11 0 -5 -4 -8 -8 -5 -5 3 -9 -35 -10
-84 -1 -65 2 -90 11 -91 6 0 20 -2 29 -4 9 -2 23 3 29 11 10 12 14 12 20 2 6
-10 11 -10 20 -1 10 10 17 5 34 -25 16 -28 27 -36 44 -34 18 2 21 -2 16 -18
-4 -13 -2 -21 7 -21 45 -5 65 -2 79 12 17 17 23 69 8 69 -19 0 -8 29 13 36 45
14 65 -71 20 -91 -12 -5 -20 -15 -18 -22 3 -7 -2 -16 -11 -21 -20 -12 -3 -23
25 -15 13 3 22 13 22 25 0 14 5 18 16 14 9 -3 24 -6 35 -6 21 0 26 -26 7 -33
-7 -2 -10 -8 -6 -12 5 -5 20 -3 34 4 21 9 24 15 16 23 -19 19 -14 26 15 20 29
-5 62 -38 63 -61 0 -8 -7 -11 -20 -8 -13 3 -21 -1 -25 -13 -8 -25 -27 -30 -67
-20 -18 5 -55 8 -83 6 -27 -2 -58 1 -68 6 -14 7 -24 5 -38 -8 -15 -14 -21 -14
-34 -4 -8 7 -15 19 -15 26 0 8 -4 14 -10 14 -5 0 -10 8 -11 18 0 13 -3 12 -11
-5 -17 -36 -34 -27 -29 15 1 6 -5 12 -14 12 -13 0 -15 -7 -9 -35 4 -25 1 -43
-11 -61 -29 -45 -49 -64 -67 -64 -15 0 -18 -8 -17 -47 1 -27 4 -38 6 -26 6 31
31 50 39 30 4 -13 11 -13 37 -5 23 9 32 8 35 0 2 -7 12 -12 23 -12 10 0 19 -4
19 -9 0 -5 9 -7 19 -4 11 3 17 11 15 17 -3 7 2 19 11 26 14 11 18 11 25 1 4
-8 12 -11 18 -7 5 3 15 -1 21 -8 15 -18 -5 -60 -43 -94 -22 -19 -27 -20 -32
-7 -5 11 -10 13 -19 5 -10 -8 -15 -8 -20 0 -5 8 -12 8 -23 -2 -32 -25 -61 -38
-67 -28 -3 5 2 13 11 18 14 8 14 10 1 15 -8 3 -23 -3 -32 -13 -15 -16 -15 -22
-5 -35 7 -8 16 -12 21 -9 20 12 30 -8 15 -31 -18 -28 -5 -45 36 -45 26 0 27
-2 22 -32 -9 -53 -11 -55 -43 -60 -37 -5 -66 26 -49 55 5 9 8 17 6 18 -2 0
-13 2 -25 3 -27 3 -32 -24 -8 -44 19 -16 19 -44 0 -60 -13 -11 -15 -77 -15
-482 0 -297 4 -476 10 -488 6 -11 26 -22 48 -25 66 -12 74 -15 62 -30 -14 -17
-50 -13 -81 8 -35 25 -39 22 -39 -33 0 -28 5 -50 10 -50 7 0 8 -14 4 -37 l-7
-38 21 25 21 25 1 -27 c0 -16 9 -33 21 -42 27 -19 19 -66 -11 -66 -11 0 -22 1
-23 3 -2 1 -11 -4 -20 -12 -14 -11 -17 -34 -17 -128 l0 -115 188 6 c333 11
426 18 455 31 15 7 27 9 27 4 0 -5 9 -9 20 -9 33 0 23 -18 -12 -23 -18 -2 22
-5 90 -5 l122 -2 -6 -24 c-3 -13 -1 -33 5 -44 8 -15 8 -23 0 -27 -6 -4 -8 -17
-5 -29 2 -11 -1 -28 -7 -37 -18 -23 -92 -63 -175 -94 -40 -15 -80 -34 -89 -43
-16 -16 -11 -17 65 -20 52 -2 82 -7 82 -14 0 -12 348 -4 409 10 35 8 56 32 28
32 -8 0 -20 7 -27 15 -11 13 -10 18 1 28 8 7 23 22 33 34 16 19 17 25 6 38
-10 12 -10 19 -2 27 7 7 12 21 12 33 0 12 5 26 11 32 6 6 15 30 19 53 7 37 5
43 -11 47 -23 6 -25 23 -3 23 10 0 15 8 14 23 -4 47 0 73 9 58 5 -7 6 -30 4
-51 -3 -23 -1 -40 6 -45 7 -3 76 -2 154 4 78 6 216 16 307 22 90 6 175 15 188
20 21 8 31 3 74 -41 l49 -50 -33 2 c-49 2 -271 -23 -288 -34 -9 -6 40 -7 130
-4 80 3 250 9 378 12 149 5 235 11 241 18 7 8 -23 11 -105 12 -73 1 -119 6
-129 14 -8 6 -18 9 -23 6 -6 -3 -15 8 -22 25 -14 32 -42 48 -88 50 -24 1 -23
2 9 11 36 9 77 -2 120 -34 22 -16 80 7 72 29 -3 8 -12 12 -21 8 -12 -4 -13 -3
-2 10 22 27 5 77 -43 127 -26 27 -50 64 -56 85 -14 50 -3 194 20 262 18 51 18
55 1 67 -9 8 -27 17 -39 20 -28 8 -30 40 -3 49 44 14 124 -29 91 -49 -16 -10
-35 -109 -32 -174 1 -45 -3 -67 -14 -78 -21 -21 -19 -93 3 -126 26 -39 88 -91
147 -121 43 -23 47 -26 23 -27 -14 0 -28 5 -30 11 -2 7 -10 10 -17 8 -9 -3 -2
-17 23 -44 30 -32 39 -36 46 -25 10 16 13 29 11 43 -1 5 2 7 6 4 37 -19 86
-37 126 -47 43 -11 46 -14 30 -26 -10 -7 -40 -14 -67 -14 -48 0 -55 -14 -11
-22 13 -2 20 -11 19 -26 0 -19 5 -22 36 -22 21 0 54 7 73 15 20 8 39 15 42 15
10 0 -4 -38 -41 -118 -19 -40 -37 -91 -40 -113 -4 -22 -29 -77 -55 -121 -58
-97 -61 -123 -18 -206 l32 -61 -17 -63 c-9 -35 -17 -76 -18 -92 -2 -24 -9 -32
-33 -38 -29 -8 -97 -85 -112 -126 -4 -9 -15 -28 -25 -41 -10 -13 -18 -38 -18
-56 0 -17 -11 -58 -24 -91 -13 -32 -22 -70 -19 -84 2 -14 -1 -45 -7 -70 -15
-61 -12 -147 6 -183 15 -29 74 -186 74 -198 0 -7 -46 -16 -120 -25 -25 -3 -54
-9 -65 -14 -11 -5 -38 -11 -60 -14 -84 -12 -119 -22 -123 -34 -2 -6 3 -12 12
-12 9 0 16 -4 16 -9 0 -5 -33 -9 -72 -10 -82 -1 -160 -7 -168 -11 -11 -7 -108
-5 -104 2 3 4 -17 5 -43 1 -54 -7 -69 -13 -32 -13 13 0 30 -4 38 -9 11 -7 7
-12 -15 -25 -25 -13 -26 -15 -8 -16 11 0 29 7 40 15 22 16 58 20 49 5 -3 -5
-15 -10 -25 -10 -10 0 -20 -5 -22 -10 -2 -6 -33 -13 -71 -17 -111 -10 -76 -22
70 -22 75 -1 139 -3 141 -6 3 -3 -30 -5 -74 -6 -77 -1 -78 -1 -49 -15 l30 -15
-29 6 c-15 3 -35 12 -42 20 -10 9 -22 11 -36 6 -12 -4 -38 -4 -58 0 -20 5 -36
4 -38 -1 -4 -10 -34 -1 -43 12 -8 12 -61 -1 -53 -13 3 -5 22 -10 42 -10 20 -1
28 -4 18 -6 -15 -4 -16 -7 -5 -14 11 -7 11 -9 -3 -9 -10 0 -18 5 -18 11 0 7
-10 9 -27 5 -22 -5 -25 -4 -13 5 12 8 9 9 -13 4 -18 -3 -35 -1 -45 7 -13 11
-14 11 -7 -1 6 -10 4 -13 -6 -9 -8 3 -23 2 -34 -3 l-20 -8 20 -1 c11 -2 24 -2
29 -1 18 4 46 -11 46 -25 0 -11 15 -14 65 -14 53 0 66 3 74 19 6 10 9 20 6 22
-4 5 113 1 135 -4 38 -9 60 -19 55 -27 -2 -4 -39 -16 -80 -25 -80 -19 -90 -30
-24 -26 23 1 57 -3 76 -10 25 -8 38 -8 46 0 13 13 47 15 47 2 0 -5 -6 -12 -12
-14 -7 -3 98 -6 235 -6 157 -1 247 -5 247 -11 0 -12 47 -13 54 -2 3 5 27 5 53
0 45 -9 512 -29 523 -23 3 2 73 8 157 15 84 6 189 17 233 24 80 13 82 13 110
-10 l28 -24 283 0 c314 0 1225 17 1387 25 87 5 109 9 143 30 21 14 39 27 39
28 0 4 -41 5 -528 13 -243 4 -445 10 -447 14 -7 11 37 26 180 60 263 62 339
82 425 110 48 16 156 41 240 54 84 14 155 28 158 31 20 20 -57 11 -273 -31
-26 -6 -28 -5 -14 7 34 30 60 90 53 125 -8 42 1 44 21 4 9 -18 11 -30 5 -30
-8 0 -8 -6 0 -20 14 -26 34 -26 27 -1 -4 15 -1 18 12 13 14 -5 15 -4 1 14 -8
10 -19 22 -24 25 -5 4 -9 17 -10 30 -1 13 -6 23 -12 22 -5 -1 -11 10 -12 25
-2 25 0 24 25 -15 18 -27 36 -42 53 -45 14 -2 102 -1 195 2 94 4 172 5 174 3
2 -2 9 -49 15 -105 11 -101 12 -102 25 -68 20 56 27 65 47 65 22 0 22 -1 6 95
-11 68 -14 122 -12 232 0 21 -4 38 -10 38 -5 0 -9 10 -8 23 2 25 -14 72 -44
129 -10 21 -16 42 -13 48 3 6 -1 13 -9 16 -9 3 -13 11 -10 16 4 6 1 14 -5 18
-7 4 -13 21 -13 38 -1 18 -5 32 -10 32 -5 0 -13 12 -18 26 -8 19 -15 24 -29
19 -17 -5 -19 -1 -17 30 2 25 0 35 -9 31 -9 -3 -13 9 -13 40 -1 24 3 44 8 44
6 0 10 -5 10 -11 0 -8 4 -8 15 1 8 7 19 8 27 3 7 -4 47 -8 88 -9 41 0 86 -4
99 -8 21 -8 22 -7 13 11 -7 12 -33 27 -64 37 l-53 16 43 -4 c23 -2 42 0 42 5
0 5 -4 9 -9 9 -5 0 -11 9 -14 20 -3 13 -14 20 -29 20 -13 0 -33 7 -44 15 -22
17 -12 19 32 6 28 -8 31 -7 27 10 -3 10 -10 16 -16 12 -6 -3 -7 -1 -3 5 7 11
-15 62 -37 91 -6 7 -12 20 -13 28 -1 7 -8 21 -16 30 -7 9 -12 24 -10 35 2 10
-2 18 -7 18 -6 0 -11 7 -11 15 0 8 -7 15 -15 15 -24 0 -17 20 8 20 20 1 19 3
-9 18 -17 9 -29 22 -27 28 2 7 -17 33 -44 58 -26 25 -42 46 -36 46 7 0 15 -4
18 -10 3 -5 16 -15 28 -21 18 -9 18 -7 -5 15 -28 27 -80 36 -125 22 -13 -4
-23 -3 -23 2 0 5 10 14 23 20 22 11 22 11 1 11 -12 1 -35 8 -50 16 -16 8 -37
15 -46 15 -9 0 -19 4 -22 9 -3 4 -24 11 -47 14 -54 7 -166 63 -173 85 -4 10
-28 26 -56 36 -90 32 -71 39 33 11 15 -4 27 -3 27 1 0 12 -92 74 -108 74 -7 0
-11 4 -7 9 5 9 44 -4 140 -44 17 -7 41 -16 53 -20 13 -4 50 -20 82 -36 65 -32
151 -54 181 -46 12 3 31 -4 50 -20 36 -31 48 -24 25 14 -14 22 -11 21 13 -7
17 -19 36 -52 42 -74 6 -21 14 -46 19 -55 5 -9 14 -31 20 -48 13 -34 30 -44
30 -19 0 8 7 17 16 20 15 6 15 9 -3 29 -10 12 -27 34 -36 48 -15 25 -15 28 2
43 10 9 23 16 30 16 6 0 80 26 164 58 l152 58 160 -7 c159 -7 663 -3 720 6 22
4 37 -1 57 -18 25 -22 31 -22 125 -15 54 4 139 9 189 11 102 5 125 12 98 31
-29 22 -8 36 44 30 35 -4 43 -3 32 5 -15 11 13 12 268 16 93 1 94 1 71 -18
-15 -12 -30 -16 -43 -12 -47 15 -71 11 -74 -13 -2 -16 -14 -27 -33 -34 -21 -7
-29 -16 -29 -34 0 -20 -5 -24 -29 -24 -16 0 -48 -7 -71 -15 -25 -9 -77 -15
-126 -15 -61 0 -84 -3 -84 -13 0 -17 -71 -39 -160 -48 -42 -4 3 -5 105 -1 99
3 234 5 300 3 66 -1 180 1 253 4 l132 7 0 161 c0 160 0 160 -20 142 -16 -14
-23 -16 -32 -7 -7 7 -19 12 -28 12 -9 0 -24 8 -33 18 -14 15 -15 27 -6 85 21
136 -32 424 -100 540 -15 27 -15 29 3 43 29 21 43 17 51 -13 3 -16 25 -66 48
-113 l42 -85 -2 -118 c-3 -117 -3 -118 21 -127 24 -9 30 -23 49 -105 3 -11 5
323 6 742 1 601 -2 762 -11 766 -10 3 -10 7 0 20 7 9 12 28 10 44 -2 23 -9 29
-32 31 -17 2 -48 -6 -71 -17 -23 -12 -66 -26 -96 -31 -30 -6 -61 -13 -70 -15
-43 -14 -24 85 27 139 19 20 36 36 38 36 2 0 0 -17 -5 -37 -12 -52 -11 -83 2
-83 6 0 35 20 66 45 30 25 63 45 72 45 29 0 30 9 7 51 -19 36 -24 39 -54 35
-27 -3 -31 -1 -21 10 9 11 6 16 -15 24 l-27 10 24 32 25 33 -28 29 -27 28 -13
-33 c-7 -19 -12 -38 -11 -42 1 -5 -4 -7 -11 -4 -9 3 -12 20 -10 54 3 40 0 52
-13 57 -10 3 -24 1 -32 -5 -19 -17 -24 -7 -14 29 7 21 6 34 -1 38 -18 11 -148
14 -148 4 0 -6 7 -10 15 -10 8 0 15 -7 15 -15 0 -8 -6 -12 -12 -10 -7 3 -19 1
-27 -4 -13 -8 -13 -12 0 -27 12 -15 12 -16 -6 -11 -60 18 -77 19 -86 6 -7 -11
-13 -9 -31 12 -26 30 -81 49 -72 25 3 -8 -3 -19 -15 -26 -29 -15 -26 -22 19
-44 22 -11 40 -23 40 -28 0 -16 17 -8 26 13 8 17 20 21 72 24 l62 3 0 -42 c0
-50 -11 -69 -33 -60 -11 4 -17 1 -17 -7 0 -7 -3 -9 -7 -6 -3 4 2 17 13 28 l19
22 -28 -7 c-24 -6 -30 -3 -34 14 -7 28 -23 25 -23 -5 0 -13 8 -28 18 -34 13
-8 14 -12 5 -22 -9 -9 -15 -9 -26 0 -12 9 -16 8 -21 -5 -8 -20 1 -34 20 -34 8
0 17 -7 20 -15 5 -11 10 -12 26 -4 26 14 36 2 13 -15 -16 -11 -17 -17 -7 -29
10 -11 9 -17 -3 -27 -9 -7 -13 -21 -10 -31 3 -9 1 -20 -4 -23 -5 -4 -12 3 -16
14 -9 27 -22 25 -29 -4 -4 -15 -16 -26 -32 -30 -21 -6 -24 -9 -14 -21 7 -8 16
-12 21 -9 5 3 9 -2 9 -10 0 -9 -6 -16 -14 -16 -18 0 -25 -24 -21 -67 2 -25 -3
-36 -21 -48 -14 -9 -21 -21 -18 -30 8 -20 22 -19 26 2 3 15 6 14 26 -7 56 -62
55 -60 25 -60 -14 0 -35 -7 -45 -17 -17 -15 -18 -15 -18 5 0 18 -3 19 -30 9
-20 -8 -31 -20 -36 -41 -4 -19 -2 -32 5 -34 19 -6 12 -22 -9 -22 -24 0 -27
-28 -3 -37 30 -12 -21 -22 -63 -13 -21 5 -41 7 -45 4 -4 -2 -11 -25 -15 -49
-3 -25 -11 -45 -16 -45 -5 0 -7 -8 -4 -18 4 -11 -1 -36 -10 -57 -11 -26 -13
-50 -8 -79 9 -50 12 -132 13 -296 0 -69 3 -151 7 -183 l6 -59 19 32 c16 26 22
30 34 20 8 -7 15 -21 15 -31 0 -11 7 -19 15 -19 9 0 15 9 15 25 0 14 5 25 10
25 6 0 10 -20 10 -45 0 -33 -4 -45 -14 -45 -8 0 -22 -10 -30 -22 -9 -12 -21
-23 -28 -24 -7 -1 -21 -5 -30 -9 -15 -6 -18 -2 -18 20 l0 27 -74 -7 c-61 -5
-76 -4 -90 10 -18 18 -23 70 -6 60 7 -4 9 2 5 18 -4 14 -2 28 4 31 14 9 14 46
1 46 -5 0 -10 5 -10 11 0 5 4 7 10 4 6 -3 10 -2 10 3 0 12 -40 23 -53 15 -5
-3 -7 -16 -4 -29 5 -30 -13 -32 -38 -4 -10 11 -22 17 -26 14 -5 -3 -28 10 -51
28 -24 18 -45 34 -47 36 -3 1 -5 26 -5 55 -1 45 -4 52 -21 52 -14 0 -19 6 -17
19 2 11 -4 20 -17 23 -12 3 -21 10 -21 16 0 6 -10 21 -22 34 -19 20 -20 25 -8
34 24 15 44 6 60 -26 37 -72 39 -74 37 -20 -1 36 -7 55 -22 68 l-20 19 23 -5
c33 -7 29 27 -8 63 -35 35 -60 39 -60 10 0 -11 -6 -20 -14 -20 -10 0 -14 9
-13 28 2 21 -2 26 -16 24 -11 -2 -25 4 -31 14 -8 10 -20 15 -29 11 -13 -5 -15
-16 -12 -49 l4 -43 -39 -1 c-28 -1 -40 3 -40 12 0 19 -29 18 -36 -1 -4 -8 -3
-23 1 -32 10 -24 12 -343 3 -343 -5 0 -9 21 -9 48 -1 26 -3 54 -4 62 -1 8 -3
94 -4 191 l-1 177 -36 4 c-19 2 -37 2 -39 -2 -7 -12 -7 -213 0 -372 6 -125 5
-168 -3 -168 -8 0 -12 20 -12 53 0 84 -20 451 -25 467 -3 8 -18 16 -35 17
l-30 2 0 -196 c0 -108 -2 -198 -5 -201 -3 -3 -13 5 -22 18 -9 13 -25 32 -35
42 -10 10 -18 22 -18 27 0 5 -6 14 -13 20 -19 16 -10 73 12 69 9 -2 17 -9 17
-16 1 -6 2 -22 3 -34 1 -18 3 -20 10 -8 14 25 -9 171 -28 177 -9 3 -23 7 -31
10 -10 3 -5 9 16 18 38 16 51 34 33 46 -11 6 -10 11 4 27 21 23 23 39 2 22
-19 -16 -37 -3 -29 22 5 18 3 19 -25 13 -24 -5 -30 -3 -26 7 3 7 -2 22 -11 33
-15 19 -15 19 -10 1 6 -16 4 -17 -9 -6 -8 7 -15 20 -15 30 0 10 -6 17 -12 16
-7 0 -15 4 -17 9 -24 69 -62 104 -75 70 -3 -8 -13 -15 -22 -15 -10 0 -14 5
-10 15 3 8 -2 19 -12 24 -13 7 -23 4 -39 -11 -19 -17 -25 -19 -38 -8 -14 11
-13 14 2 25 16 12 16 14 -9 26 -22 9 -30 9 -43 -1 -12 -10 -15 -10 -15 3 0 17
-18 32 -27 23 -3 -3 3 -18 13 -33 36 -55 54 -98 53 -128 l-1 -30 -7 30 c-12
46 -46 107 -81 142 -28 29 -51 40 -115 57 -11 3 -3 4 18 1 33 -3 36 -2 28 14
-10 18 -88 64 -131 76 -14 4 -39 18 -56 30 -52 40 -382 204 -462 232 -43 14
-111 29 -152 33 l-75 7 60 2 c52 1 57 3 45 15 -10 10 -41 16 -93 17 -95 3
-133 9 -117 19 7 4 -8 10 -34 14 -48 7 -126 43 -126 58 0 11 0 11 45 -12 21
-11 54 -22 72 -25 105 -16 110 -18 83 -25 -22 -6 -20 -8 20 -15 30 -5 45 -4
48 4 3 8 9 8 23 1 10 -6 31 -9 46 -7 26 3 28 7 34 68 4 35 3 69 -2 75 -11 14
1 56 15 51 16 -5 25 -65 14 -103 -5 -19 -8 -56 -6 -82 l3 -47 85 -31 c47 -16
96 -35 110 -41 14 -5 48 -13 76 -16 47 -5 51 -4 62 21 26 59 48 85 75 89 27 4
35 -5 18 -23 -5 -5 -10 -22 -11 -39 -3 -44 -1 -52 10 -35 8 12 10 11 10 -7 0
-30 16 -38 24 -11 l5 23 21 -22 c11 -12 20 -27 20 -32 0 -7 8 -7 24 -1 24 9
24 8 14 -21 -14 -41 -1 -50 25 -15 31 43 29 76 -6 95 -44 24 -90 68 -83 79 3
5 -3 12 -14 15 -20 5 -29 37 -10 37 6 0 4 15 -5 37 -8 20 -13 38 -10 41 9 9
35 -20 35 -39 0 -16 34 -49 52 -49 3 0 14 7 23 16 12 12 19 13 29 5 10 -9 17
-7 27 5 12 15 11 16 -7 10 -16 -5 -25 0 -38 18 -9 14 -16 33 -16 43 1 16 3 15
19 -4 22 -27 31 -29 31 -8 0 8 5 15 10 15 6 0 10 5 10 10 0 6 -12 10 -27 10
l-28 1 23 18 c27 24 27 27 0 35 -23 6 -23 6 -3 22 18 14 18 16 3 25 -13 7 -14
13 -5 34 12 24 48 31 72 14 19 -14 36 6 27 31 -6 16 -11 20 -16 11 -6 -9 -11
-9 -21 -1 -9 7 -15 8 -19 1 -10 -15 -36 -1 -36 19 0 10 -7 23 -15 30 -19 16
-19 54 0 70 17 14 9 34 -11 26 -24 -9 -24 11 1 30 18 14 23 24 19 44 -12 52
-14 54 -29 34 -14 -18 -16 -18 -26 -1 -14 24 -51 21 -69 -5 -8 -13 -14 -27
-15 -32 0 -11 -55 -27 -67 -20 -4 3 -13 2 -19 -2 -8 -4 -4 -13 12 -25 13 -10
20 -21 17 -25 -4 -4 -20 5 -35 20 -14 15 -32 25 -39 22 -15 -6 -30 13 -28 34
3 33 5 34 17 18 12 -15 16 -15 46 -1 28 14 34 14 41 3 7 -11 11 -8 19 13 7 17
18 27 31 27 11 0 20 7 20 15 0 8 -4 15 -10 15 -5 0 -10 -4 -10 -10 0 -5 -14
-7 -32 -3 -18 3 -30 2 -26 -2 4 -4 -2 -16 -12 -27 -21 -22 -50 -18 -50 7 0 8
-6 15 -14 15 -19 0 -42 30 -30 38 17 11 25 42 10 36 -16 -6 -38 19 -34 37 2
11 -14 15 -66 17 -56 2 -71 0 -82 -15 -11 -15 -13 -15 -8 -2 4 13 -1 16 -24
15 -16 -1 -37 -7 -45 -15 -14 -11 -18 -11 -23 3 -5 12 -20 16 -59 16 -30 0
-56 -4 -59 -9 -3 -5 0 -9 7 -8 33 1 48 -4 41 -14 -3 -6 -17 -8 -31 -4 -22 5
-25 3 -20 -14 3 -12 1 -21 -4 -21 -5 0 -9 4 -9 10 0 18 -40 32 -56 20 -7 -7
-21 -10 -29 -6 -9 3 -13 2 -10 -4 3 -5 -4 -14 -16 -20 -14 -8 -19 -18 -16 -31
8 -31 -12 -33 -24 -2 -7 19 -7 29 0 31 6 2 11 12 11 23 0 11 7 19 16 19 32 0
6 25 -29 28 -40 3 -46 -4 -21 -22 9 -7 12 -18 8 -29 -10 -26 -22 -20 -38 18
-14 33 -17 34 -40 23 -15 -6 -26 -15 -26 -20 0 -5 4 -6 10 -3 6 3 10 2 10 -4
0 -19 -19 -21 -40 -4 -25 21 -25 30 -2 36 9 3 -1 5 -23 6 -36 1 -42 -2 -54
-30 -9 -20 -11 -47 -7 -75 4 -33 2 -46 -8 -50 -8 -3 -11 -15 -8 -29 2 -14 1
-32 -2 -42 -6 -14 -11 -12 -37 16 -32 36 -30 44 16 83 20 18 20 18 -4 18 -18
0 -22 4 -16 18 12 31 10 36 -10 37 -11 0 -25 12 -33 28 l-13 27 -260 0 c-151
0 -258 -4 -255 -9 3 -5 -1 -12 -10 -15 -22 -9 -24 -8 -24 9 0 10 -10 15 -30
15 -24 0 -35 -7 -48 -30 -17 -29 -45 -39 -57 -21 -3 6 4 19 16 30 l22 21 -511
-1 -512 0 6 -24 c5 -19 2 -25 -10 -25 -9 0 -16 5 -16 11 0 8 -5 8 -15 -1 -12
-10 -16 -8 -24 11 -9 23 -10 22 -10 -9 -1 -30 -3 -32 -28 -26 -29 8 -52 30
-53 52 0 9 -44 12 -185 12 -105 0 -185 -4 -185 -9 0 -5 4 -11 10 -13 6 -2 6
-9 0 -17 -7 -12 -11 -12 -23 -2 -9 7 -24 11 -34 9 -12 -2 -17 2 -15 14 2 13
-2 16 -13 12 -10 -4 -13 -13 -10 -24 3 -10 2 -21 -4 -24 -5 -3 -7 -15 -4 -26
3 -11 1 -20 -5 -20 -6 0 -17 -3 -26 -6 -12 -4 -16 0 -16 15 0 24 -18 28 -26 6
-4 -8 -11 -15 -17 -15 -6 0 -19 -7 -29 -17 -17 -15 -18 -15 -18 6 0 14 7 25
18 28 19 5 28 48 12 58 -6 3 -10 -3 -10 -14 0 -29 -16 -34 -44 -16 -23 16 -28
16 -57 1 -18 -9 -40 -14 -48 -12 -22 7 -71 -66 -71 -105 0 -30 -2 -31 -30 -26
-24 5 -33 2 -46 -18 -15 -23 -15 -27 6 -60 25 -40 22 -47 -16 -51 -15 -2 -33
-5 -40 -8 -16 -6 -19 -72 -4 -81 6 -4 9 -20 6 -36 -4 -27 -2 -29 29 -29 42 0
44 -4 36 -60 -4 -32 -11 -46 -23 -48 -11 -2 -18 3 -18 11 0 18 -37 29 -46 15
-4 -6 1 -15 10 -20 27 -15 18 -35 -24 -57 -36 -19 -43 -19 -63 -7 -12 8 -44
20 -70 27 -29 7 -44 15 -37 19 16 10 2 33 -16 26 -8 -3 -14 -1 -14 4 0 6 -8
10 -17 10 -13 0 -14 3 -5 8 8 6 10 19 6 41 -6 27 -9 30 -16 17 -5 -10 -7 -24
-4 -32 7 -18 1 -18 -29 2 -23 15 -23 18 -10 37 17 24 20 51 5 42 -5 -3 -10
-15 -10 -25 0 -11 -12 -26 -30 -35 -35 -18 -50 -19 -50 -2 0 22 -19 43 -27 31
-5 -6 -18 -14 -30 -18 -19 -6 -25 -1 -40 29 -17 35 -17 37 0 46 11 6 17 22 17
43 0 30 -3 34 -33 40 -20 4 -47 1 -66 -7 -33 -14 -81 -12 -81 3 0 5 -10 6 -22
3 -13 -3 -20 -2 -16 2 14 15 -11 43 -32 38 -31 -8 -25 20 11 46 27 20 30 27
24 58 -5 27 -3 33 7 27 36 -20 38 -25 18 -52 -13 -18 -19 -39 -17 -61 3 -40
23 -53 30 -19 3 18 5 15 6 -9 1 -30 3 -32 34 -30 32 2 50 14 41 29 -3 4 -14 2
-24 -4 -24 -15 -44 0 -34 27 7 17 8 17 22 -1 12 -17 13 -15 7 23 -6 40 -5 44
19 53 14 5 26 14 26 19 0 5 10 11 23 15 36 10 -1 27 -44 20 -30 -5 -40 -2 -67
26 -18 17 -36 29 -42 25 -6 -3 -7 0 -4 9 3 9 1 16 -5 16 -6 0 -8 7 -5 15 4 8
1 22 -6 30 -11 13 -9 15 6 13 11 -2 21 2 24 7 3 6 -14 11 -40 13 -39 2 -46 0
-47 -16 -1 -11 8 -24 20 -30 21 -9 21 -10 -5 -8 -19 1 -29 8 -32 22 -8 29 -31
34 -168 34 l-116 0 -21 -36 c-21 -35 -14 -36 22 -5 16 13 19 13 27 1 15 -24
12 -30 -15 -30 -14 0 -25 -4 -25 -9 0 -15 54 -7 67 9 6 8 14 12 18 8 9 -9 -45
-68 -62 -68 -7 0 -13 7 -13 16 0 12 -6 15 -24 10 -19 -5 -29 0 -40 16 -22 31
-20 54 6 72 12 9 18 16 12 16 -6 0 -20 -10 -32 -23z m2054 -12 c-3 -9 -11 -13
-16 -10 -8 5 -7 11 1 21 14 18 24 11 15 -11z m1712 -14 c-15 -5 -19 4 -11 24
6 18 7 18 13 -1 4 -10 3 -21 -2 -23z m939 28 c6 -6 9 -17 7 -24 -3 -6 2 -18
11 -25 8 -7 15 -18 15 -25 0 -7 10 -19 23 -28 17 -12 19 -18 10 -28 -9 -9 -10
-16 -1 -26 9 -11 6 -15 -12 -20 -21 -6 -22 -7 -5 -19 21 -16 13 -44 -13 -44
-13 0 -21 9 -25 29 -3 15 -17 42 -31 59 -29 33 -32 53 -13 83 10 18 9 23 -15
43 -16 12 -28 25 -28 29 0 11 65 8 77 -4z m-4403 -30 c-8 -13 -24 -1 -24 18 0
13 3 13 15 3 8 -7 12 -16 9 -21z m2227 10 c12 -24 -3 -42 -28 -32 -16 6 -17
23 -2 23 6 0 9 7 5 15 -8 23 12 18 25 -6z m654 1 c7 -21 -11 -54 -24 -46 -4 3
-8 18 -9 35 -3 36 23 44 33 11z m505 4 c0 -17 -22 -14 -28 4 -2 7 3 12 12 12
9 0 16 -7 16 -16z m40 1 c0 -8 -4 -15 -10 -15 -5 0 -7 7 -4 15 4 8 8 15 10 15
2 0 4 -7 4 -15z m760 5 c0 -5 -7 -7 -15 -4 -8 4 -15 8 -15 10 0 2 7 4 15 4 8
0 15 -4 15 -10z m-2550 -10 c0 -5 -4 -10 -10 -10 -5 0 -10 5 -10 10 0 6 5 10
10 10 6 0 10 -4 10 -10z m1512 -40 c2 -21 8 -25 33 -23 28 2 28 2 7 -7 -13 -6
-20 -15 -17 -21 10 -15 34 -133 29 -138 -10 -11 -24 21 -48 109 -14 52 -26
102 -26 110 0 23 18 -2 22 -30z m436 23 c-4 -22 -22 -20 -26 1 -2 10 3 16 13
16 10 0 15 -7 13 -17z m470 -10 c2 -8 -6 -13 -22 -13 -19 0 -24 4 -19 15 6 18
34 16 41 -2z m-598 -3 c0 -5 -5 -10 -11 -10 -5 0 -7 5 -4 10 3 6 8 10 11 10 2
0 4 -4 4 -10z m780 0 c0 -5 -2 -10 -4 -10 -3 0 -8 5 -11 10 -3 6 -1 10 4 10 6
0 11 -4 11 -10z m-2360 -10 c0 -5 -2 -10 -4 -10 -3 0 -8 5 -11 10 -3 6 -1 10
4 10 6 0 11 -4 11 -10z m1920 -4 c0 -8 -4 -18 -10 -21 -5 -3 -10 3 -10 14 0
12 5 21 10 21 6 0 10 -6 10 -14z m-2408 -11 c0 -5 -5 -11 -11 -13 -6 -2 -11 4
-11 13 0 9 5 15 11 13 6 -2 11 -8 11 -13z m2733 -15 c-5 -8 -11 -8 -17 -2 -6
6 -7 16 -3 22 5 8 11 8 17 2 6 -6 7 -16 3 -22z m-4385 -37 c0 -29 -8 -29 -43
0 -19 15 -26 28 -22 39 6 15 8 15 36 0 18 -11 29 -25 29 -39z m390 36 c0 -12
-29 -24 -37 -16 -3 4 -3 13 0 21 6 16 37 11 37 -5z m2860 14 c-1 -14 -27 -43
-39 -43 -15 0 -14 10 6 32 16 18 33 24 33 11z m370 -3 c0 -5 -4 -10 -10 -10
-5 0 -10 5 -10 10 0 6 5 10 10 10 6 0 10 -4 10 -10z m122 -5 c0 -5 -5 -11 -11
-13 -6 -2 -11 4 -11 13 0 9 5 15 11 13 6 -2 11 -8 11 -13z m-1752 -10 c0 -8
-4 -15 -10 -15 -5 0 -10 -7 -10 -15 0 -8 -4 -15 -10 -15 -5 0 -10 14 -10 30 0
23 4 30 20 30 11 0 20 -7 20 -15z m845 -15 c-6 -9 -9 -9 -16 1 -10 17 0 34 13
21 6 -6 7 -16 3 -22z m1425 21 c0 -6 -4 -13 -10 -16 -5 -3 -10 1 -10 9 0 9 5
16 10 16 6 0 10 -4 10 -9z m-1134 -27 c-4 -15 -2 -32 5 -40 15 -18 3 -48 -17
-40 -8 3 -25 -1 -38 -9 -12 -8 -26 -12 -29 -8 -11 10 -8 61 3 68 6 3 10 15 10
26 0 22 29 26 48 7 9 -9 12 -8 12 5 0 9 3 17 6 17 3 0 3 -12 0 -26z m434 11
c0 -9 -6 -12 -15 -9 -8 4 -15 10 -15 15 0 5 7 9 15 9 8 0 15 -7 15 -15z m125
-16 c10 -15 -1 -23 -20 -15 -9 3 -13 10 -10 16 8 13 22 13 30 -1z m790 -26 c3
-14 1 -31 -4 -36 -14 -14 -18 -9 -26 36 -6 31 -5 36 8 31 8 -3 18 -17 22 -31z
m85 22 c0 -8 -7 -15 -15 -15 -8 0 -15 7 -15 15 0 8 7 15 15 15 8 0 15 -7 15
-15z m-700 -14 c0 -6 -4 -13 -10 -16 -5 -3 -10 1 -10 9 0 9 5 16 10 16 6 0 10
-4 10 -9z m426 -6 c6 -15 -36 -59 -46 -48 -3 3 1 8 8 10 6 3 12 16 12 29 0 27
17 33 26 9z m-4366 -11 c0 -8 -5 -12 -10 -9 -6 4 -8 11 -5 16 9 14 15 11 15
-7z m3852 -9 c-2 -14 -8 -22 -14 -19 -5 3 -16 0 -24 -7 -12 -9 -17 -10 -27 0
-9 9 -7 16 13 31 36 28 58 26 52 -5z m-2174 -2 c-5 -25 -28 -28 -28 -4 0 12 6
21 16 21 9 0 14 -7 12 -17z m82 -13 c0 -5 -4 -10 -10 -10 -5 0 -10 5 -10 10 0
6 5 10 10 10 6 0 10 -4 10 -10z m330 -19 c0 -22 -8 -36 -31 -51 -34 -25 -46
-22 -30 8 8 15 7 23 -4 32 -21 18 -19 32 4 25 11 -3 22 -1 26 5 13 22 35 10
35 -19z m620 19 c0 -5 -4 -10 -10 -10 -5 0 -10 5 -10 10 0 6 5 10 10 10 6 0
10 -4 10 -10z m300 -21 c0 -10 -4 -19 -10 -19 -5 0 -10 12 -10 26 0 14 4 23
10 19 6 -3 10 -15 10 -26z m250 16 c0 -8 -4 -15 -10 -15 -5 0 -10 7 -10 15 0
8 5 15 10 15 6 0 10 -7 10 -15z m1395 5 c3 -5 1 -10 -4 -10 -6 0 -11 5 -11 10
0 6 2 10 4 10 3 0 8 -4 11 -10z m465 -21 c0 -12 -27 -11 -35 1 -11 17 5 32 21
19 8 -6 14 -15 14 -20z m-4715 11 c3 -5 1 -10 -4 -10 -6 0 -11 5 -11 10 0 6 2
10 4 10 3 0 8 -4 11 -10z m1235 -7 c0 -15 -23 -43 -35 -43 -18 0 -18 1 -5 34
6 17 14 24 25 20 8 -3 15 -8 15 -11z m3393 -8 c-7 -21 -13 -19 -13 6 0 11 4
18 10 14 5 -3 7 -12 3 -20z m-943 5 c0 -5 -6 -13 -14 -17 -7 -4 -15 -15 -18
-23 -3 -8 -6 0 -5 18 0 24 4 32 19 32 10 0 18 -4 18 -10z m354 1 c3 -5 -1 -11
-9 -15 -9 -3 -15 0 -15 9 0 16 16 20 24 6z m-554 -21 c0 -5 -5 -10 -11 -10 -5
0 -7 5 -4 10 3 6 8 10 11 10 2 0 4 -4 4 -10z m629 -37 c1 -7 -3 -13 -9 -13 -5
0 -10 15 -9 33 0 27 2 29 9 12 5 -11 9 -26 9 -32z m-678 24 c-1 -12 -15 -9
-19 4 -3 6 1 10 8 8 6 -3 11 -8 11 -12z m-183 -14 c5 -18 -23 -16 -39 3 -11
14 -10 15 11 12 13 -1 25 -9 28 -15z m305 -11 c-1 -35 -4 -38 -13 -17 -13 29
-12 47 2 43 7 -3 12 -14 11 -26z m-198 8 c3 -5 1 -10 -4 -10 -6 0 -11 5 -11
10 0 6 2 10 4 10 3 0 8 -4 11 -10z m270 -22 c10 -44 1 -231 -12 -235 -9 -3
-11 13 -10 56 1 41 -2 62 -10 66 -25 9 -9 135 17 135 5 0 12 -10 15 -22z
m-469 -45 c9 -32 24 -71 33 -88 15 -27 30 -74 45 -144 5 -23 -12 -61 -26 -61
-5 0 -8 9 -8 20 0 11 -4 28 -9 38 -12 21 -51 148 -51 165 -1 6 -9 30 -20 52
-23 47 -24 62 -7 68 24 10 27 7 43 -50z m-356 37 c0 -5 -4 -10 -10 -10 -5 0
-10 5 -10 10 0 6 5 10 10 10 6 0 10 -4 10 -10z m1805 0 c3 -5 1 -10 -4 -10 -6
0 -11 5 -11 10 0 6 2 10 4 10 3 0 8 -4 11 -10z m-4968 -31 c-6 -10 -13 -15
-15 -9 -6 17 7 42 18 35 6 -4 5 -13 -3 -26z m2678 21 c3 -5 1 -10 -4 -10 -6 0
-11 5 -11 10 0 6 2 10 4 10 3 0 8 -4 11 -10z m186 -33 c-8 -8 -11 -5 -11 9 0
27 14 41 18 19 2 -9 -1 -22 -7 -28z m191 28 c0 -5 -5 -11 -11 -13 -6 -2 -11 4
-11 13 0 9 5 15 11 13 6 -2 11 -8 11 -13z m1313 -6 c-8 -12 -35 -12 -35 0 0
11 22 20 33 14 4 -2 5 -9 2 -14z m553 10 c-2 -6 -8 -10 -13 -10 -5 0 -11 4
-13 10 -2 6 4 11 13 11 9 0 15 -5 13 -11z m-4578 -9 c0 -5 -7 -10 -15 -10 -8
0 -15 5 -15 10 0 6 7 10 15 10 8 0 15 -4 15 -10z m1710 -7 c0 -26 -12 -39 -41
-46 -33 -8 -39 -2 -25 28 16 35 66 48 66 18z m2260 8 c0 -9 -41 -23 -49 -16
-3 4 28 20 47 24 1 1 2 -3 2 -8z m137 -7 c3 -10 -25 -50 -31 -43 -2 2 -2 17 1
32 5 26 23 33 30 11z m303 6 c0 -5 -4 -10 -10 -10 -5 0 -10 5 -10 10 0 6 5 10
10 10 6 0 10 -4 10 -10z m-3366 -37 c-6 -33 -33 -73 -49 -73 -9 0 -5 48 6 74
7 14 19 27 28 29 9 3 17 5 19 6 2 0 0 -16 -4 -36z m766 22 c0 -8 -7 -15 -15
-15 -26 0 -18 20 13 29 1 1 2 -6 2 -14z m1440 -10 c0 -8 -4 -15 -9 -15 -13 0
-22 16 -14 24 11 11 23 6 23 -9z m-2384 -24 c-8 -12 -39 -15 -49 -4 -10 9 36
31 47 22 4 -4 5 -12 2 -18z m727 9 c-3 -11 -9 -20 -13 -20 -5 0 -6 9 -3 20 3
11 9 20 13 20 5 0 6 -9 3 -20z m1142 10 c3 -5 1 -10 -4 -10 -6 0 -11 5 -11 10
0 6 2 10 4 10 3 0 8 -4 11 -10z m-1775 -35 c-15 -18 -50 -20 -50 -2 0 16 42
36 54 26 5 -5 4 -15 -4 -24z m1360 31 c0 -3 -4 -8 -10 -11 -5 -3 -10 -1 -10 4
0 6 5 11 10 11 6 0 10 -2 10 -4z m2340 -18 c0 -15 -9 -27 -25 -35 -20 -9 -25
-8 -25 2 0 7 -8 16 -17 19 -12 5 -13 10 -5 18 8 8 15 8 27 -2 12 -10 15 -10
15 4 0 9 7 16 15 16 9 0 15 -9 15 -22z m-1084 1 c8 -14 -11 -33 -25 -25 -11 7
-4 36 9 36 5 0 12 -5 16 -11z m-3576 -8 c0 -12 -20 -25 -27 -18 -7 7 6 27 18
27 5 0 9 -4 9 -9z m1970 -1 c0 -5 -4 -10 -10 -10 -5 0 -10 5 -10 10 0 6 5 10
10 10 6 0 10 -4 10 -10z m845 0 c-3 -5 -13 -10 -21 -10 -8 0 -14 5 -14 10 0 6
9 10 21 10 11 0 17 -4 14 -10z m-250 -40 c25 0 125 -48 125 -61 0 -5 -10 -5
-22 0 -40 15 -229 -6 -250 -27 -11 -11 -10 -12 5 -7 23 9 22 -7 -2 -25 -11 -7
-17 -18 -14 -23 4 -6 -4 -7 -20 -3 -21 5 -26 2 -29 -16 -3 -22 -34 -34 -105
-41 -12 -1 -25 -5 -29 -9 -4 -5 -17 -8 -28 -8 -12 0 -40 -9 -63 -20 l-43 -19
0 23 c0 18 7 25 31 30 17 3 28 10 24 16 -3 5 -2 10 4 10 6 0 26 14 44 30 19
17 42 30 51 30 9 0 16 5 16 11 0 6 9 9 20 6 10 -3 18 -1 17 4 -1 5 12 17 28
27 17 9 34 22 38 29 4 7 31 15 60 19 39 5 58 14 77 35 24 26 26 26 34 8 5 -10
19 -19 31 -19z m1548 28 c-4 -7 -8 -16 -8 -20 0 -11 -15 -22 -15 -10 0 19 12
42 22 42 5 0 6 -6 1 -12z m-4168 -8 c-3 -5 -11 -10 -16 -10 -6 0 -7 5 -4 10 3
6 11 10 16 10 6 0 7 -4 4 -10z m332 -16 c-9 -9 -28 6 -21 18 4 6 10 6 17 -1 6
-6 8 -13 4 -17z m1413 16 c0 -5 -7 -10 -16 -10 -8 0 -12 5 -9 10 3 6 10 10 16
10 5 0 9 -4 9 -10z m-1859 -37 c33 -53 33 -53 11 -53 -25 0 -40 19 -48 58 -9
43 9 41 37 -5z m1239 -28 c-6 -15 -16 -25 -23 -23 -17 6 -21 43 -7 68 12 22
12 22 26 2 11 -15 12 -27 4 -47z m1590 44 c0 -5 -4 -9 -10 -9 -5 0 -10 7 -10
16 0 8 5 12 10 9 6 -3 10 -10 10 -16z m1548 9 c-6 -18 -28 -21 -28 -4 0 9 7
16 16 16 9 0 14 -5 12 -12z m282 7 c0 -8 -48 -55 -55 -55 -10 0 6 44 19 52 13
9 36 10 36 3z m-4210 -42 c0 -7 -6 -10 -13 -7 -21 8 -67 -14 -67 -31 0 -11 -6
-14 -25 -9 -14 3 -25 2 -25 -4 0 -5 9 -12 20 -15 12 -3 20 -14 20 -27 0 -12 4
-18 11 -15 6 4 19 -2 30 -14 11 -12 26 -21 34 -21 8 0 15 -4 15 -8 0 -15 -50
-56 -57 -48 -5 4 0 14 11 21 19 14 14 35 -9 35 -7 0 -28 -14 -45 -32 -27 -26
-31 -37 -27 -65 3 -18 2 -33 -2 -33 -5 0 -11 -9 -14 -20 -7 -26 -37 -26 -37
-1 0 11 4 22 9 26 5 3 12 18 16 33 6 30 -20 96 -36 87 -5 -4 -14 5 -20 19 -10
21 -17 24 -38 19 -14 -3 -30 -12 -34 -20 -4 -7 -16 -13 -25 -13 -15 -1 -15 -2
1 -15 13 -9 17 -20 12 -34 -9 -30 -25 -26 -25 7 0 15 -6 34 -13 41 -10 10 -7
16 11 29 13 10 20 21 16 25 -4 4 -13 2 -21 -5 -7 -6 -16 -9 -18 -6 -10 10 7
38 22 38 12 0 14 7 9 31 -6 34 7 59 30 59 8 0 14 -6 14 -13 0 -20 37 -50 52
-44 10 3 13 -4 11 -27 -4 -38 21 -72 60 -81 21 -6 27 -4 27 10 0 12 -5 15 -19
10 -15 -5 -24 1 -35 24 -23 43 -20 54 8 47 19 -5 29 0 41 16 8 13 23 23 33 23
9 0 21 9 26 21 8 18 13 20 38 10 15 -6 28 -16 28 -23z m4123 12 c-1 -11 -4
-41 -5 -67 -2 -48 -23 -72 -40 -46 -13 21 -9 55 6 61 11 4 13 16 9 42 -5 33
-4 37 13 33 12 -2 18 -11 17 -23z m-3499 -21 c4 -9 4 -19 2 -21 -8 -8 -26 8
-26 23 0 19 16 18 24 -2z m2876 7 c0 -6 -4 -13 -10 -16 -5 -3 -10 1 -10 9 0 9
5 16 10 16 6 0 10 -4 10 -9z m-2182 -14 c-1 -3 8 -17 22 -32 21 -22 23 -29 12
-46 -7 -11 -10 -24 -7 -29 4 -6 3 -15 -1 -22 -5 -8 -11 -5 -20 7 -8 10 -17 15
-21 12 -3 -4 4 -18 17 -32 19 -21 21 -25 7 -25 -9 0 -17 5 -17 10 0 6 -9 10
-20 10 -24 0 -38 26 -22 42 7 7 7 16 0 27 -8 14 -5 23 16 46 14 15 26 33 26
38 0 6 3 8 6 5 3 -4 4 -9 2 -11z m1857 3 c3 -5 1 -10 -4 -10 -6 0 -11 5 -11
10 0 6 2 10 4 10 3 0 8 -4 11 -10z m285 0 c0 -5 -4 -10 -10 -10 -5 0 -10 5
-10 10 0 6 5 10 10 10 6 0 10 -4 10 -10z m-3610 -4 c0 -3 -4 -8 -10 -11 -5 -3
-10 -1 -10 4 0 6 5 11 10 11 6 0 10 -2 10 -4z m1560 0 c0 -11 -19 -15 -25 -6
-3 5 1 10 9 10 9 0 16 -2 16 -4z m580 -10 c0 -8 -10 -13 -25 -13 -25 0 -31 7
-18 20 12 12 43 7 43 -7z m517 8 c-3 -3 -12 -4 -19 -1 -8 3 -5 6 6 6 11 1 17
-2 13 -5z m301 -12 c2 -7 -3 -12 -12 -12 -9 0 -16 7 -16 16 0 17 22 14 28 -4z
m602 -12 c0 -5 -4 -10 -9 -10 -6 0 -13 5 -16 10 -3 6 1 10 9 10 9 0 16 -4 16
-10z m800 -20 c-21 -14 -30 -12 -30 4 0 18 22 27 35 14 6 -6 5 -12 -5 -18z
m-4676 -2 c12 -20 10 -23 -26 -32 -25 -6 -28 -3 -28 17 0 13 3 27 7 31 11 11
35 3 47 -16z m1507 -8 c12 0 19 -5 17 -12 -7 -19 -38 -22 -38 -4 0 22 -18 30
-36 15 -8 -6 -17 -9 -20 -6 -9 8 6 28 16 22 5 -3 12 0 16 6 5 8 10 7 16 -5 5
-9 18 -16 29 -16z m2169 16 c0 -17 -27 -29 -35 -16 -4 6 -3 15 0 20 9 15 35
12 35 -4z m-3184 -23 c-10 -10 -19 5 -10 18 6 11 8 11 12 0 2 -7 1 -15 -2 -18z
m1592 4 c2 -11 -3 -17 -17 -17 -23 0 -35 15 -26 31 10 15 39 6 43 -14z m1952
13 c0 -5 -7 -10 -16 -10 -8 0 -12 5 -9 10 3 6 10 10 16 10 5 0 9 -4 9 -10z
m400 0 c0 -5 -4 -10 -10 -10 -5 0 -10 5 -10 10 0 6 5 10 10 10 6 0 10 -4 10
-10z m477 -16 c-9 -9 -28 6 -21 18 4 6 10 6 17 -1 6 -6 8 -13 4 -17z m-4803
-5 c-3 -5 -10 -7 -15 -3 -5 3 -7 10 -3 15 3 5 10 7 15 3 5 -3 7 -10 3 -15z
m3116 11 c0 -5 -2 -10 -4 -10 -3 0 -8 5 -11 10 -3 6 -1 10 4 10 6 0 11 -4 11
-10z m-3417 -20 c-8 -29 -29 -44 -36 -26 -4 9 3 22 16 31 27 19 26 19 20 -5z
m612 10 c3 -5 1 -10 -4 -10 -6 0 -11 5 -11 10 0 6 2 10 4 10 3 0 8 -4 11 -10z
m4425 -10 c0 -5 -7 -10 -16 -10 -8 0 -12 5 -9 10 3 6 10 10 16 10 5 0 9 -4 9
-10z m-2910 -33 c12 -4 12 -6 -3 -12 -20 -8 -47 10 -47 33 0 14 2 14 18 0 9
-9 24 -18 32 -21z m1649 1 c-1 -18 3 -45 9 -60 14 -33 5 -61 -15 -54 -8 3 -19
6 -24 6 -5 0 -9 7 -9 15 0 11 -7 14 -22 10 -16 -4 -27 0 -36 15 -16 27 -7 42
26 40 46 -3 52 -1 52 23 0 22 7 37 17 37 3 0 4 -15 2 -32z m251 17 c16 -19 3
-40 -16 -24 -15 13 -19 39 -5 39 5 0 14 -7 21 -15z m-3983 -10 c1 -5 -2 -17
-7 -25 -9 -13 -11 -13 -20 0 -15 23 -12 42 7 38 9 -2 18 -7 20 -13z m1729 -12
c-10 -10 -19 5 -10 18 6 11 8 11 12 0 2 -7 1 -15 -2 -18z m1303 -17 c0 -6 -3
-5 -6 2 -4 10 -8 9 -19 -5 -11 -15 -15 -16 -23 -4 -6 9 -3 20 8 32 15 18 17
18 28 2 7 -9 13 -22 12 -27z m2019 21 c2 -9 -4 -20 -13 -23 -19 -8 -20 -6 -30
24 -6 21 -4 23 16 20 13 -2 25 -11 27 -21z m-138 -18 c0 -18 -35 -5 -38 14 -3
16 -1 17 17 7 12 -6 21 -15 21 -21z m-4740 -13 c-8 -8 -13 -7 -20 4 -12 20 -1
33 16 19 11 -9 12 -15 4 -23z m3910 14 c0 -5 -4 -10 -10 -10 -5 0 -10 5 -10
10 0 6 5 10 10 10 6 0 10 -4 10 -10z m-2318 -40 c5 0 8 7 8 15 0 17 16 20 25
5 3 -5 1 -10 -5 -10 -13 0 -3 -41 12 -51 6 -4 -2 -9 -17 -13 -32 -8 -46 1 -25
14 8 6 10 10 5 10 -6 0 -16 -5 -23 -12 -18 -18 -68 -19 -83 -2 -11 14 -9 20
19 45 31 28 34 28 55 14 12 -8 25 -15 29 -15z m2398 15 c0 -8 -4 -15 -10 -15
-5 0 -7 7 -4 15 4 8 8 15 10 15 2 0 4 -7 4 -15z m713 1 c9 -7 17 -23 17 -34 0
-11 5 -24 10 -27 22 -14 10 -35 -21 -35 -28 0 -31 2 -25 25 4 14 2 25 -2 25
-5 0 -9 13 -8 30 1 34 4 35 29 16z m-4719 -2 c22 -9 20 -34 -3 -34 -19 0 -35
23 -24 34 8 7 8 7 27 0z m238 -9 c0 -5 -5 -11 -11 -13 -6 -2 -11 4 -11 13 0 9
5 15 11 13 6 -2 11 -8 11 -13z m848 5 c0 -5 -9 -10 -21 -10 -11 0 -17 5 -14
10 3 6 13 10 21 10 8 0 14 -4 14 -10z m590 -17 c0 -20 -3 -24 -11 -16 -7 7 -9
19 -6 27 10 24 17 19 17 -11z m-1180 7 c0 -5 -2 -10 -4 -10 -3 0 -8 5 -11 10
-3 6 -1 10 4 10 6 0 11 -4 11 -10z m3922 -12 c-7 -7 -12 -8 -12 -2 0 6 3 14 7
17 3 4 9 5 12 2 2 -3 -1 -11 -7 -17z m53 12 c-3 -5 -10 -10 -16 -10 -5 0 -9 5
-9 10 0 6 7 10 16 10 8 0 12 -4 9 -10z m60 0 c3 -5 1 -10 -4 -10 -6 0 -11 5
-11 10 0 6 2 10 4 10 3 0 8 -4 11 -10z m-2775 -22 c0 -13 -23 -5 -28 10 -2 7
2 10 12 6 9 -3 16 -11 16 -16z m1228 -32 c2 -9 10 -16 18 -16 8 0 14 -3 14 -8
0 -4 10 -12 22 -17 22 -10 24 -13 54 -82 12 -26 27 -44 41 -48 12 -3 25 -14
28 -25 4 -12 30 -31 63 -46 67 -32 92 -51 92 -73 -1 -13 -3 -13 -15 3 -15 19
-15 19 -15 -5 -1 -23 -2 -23 -15 6 -7 17 -14 23 -14 14 -1 -20 35 -73 78 -117
36 -35 35 -58 0 -26 -22 19 -22 19 -10 -4 16 -29 9 -38 -12 -17 -46 45 -90
109 -116 166 l-29 63 5 -71 c5 -61 2 -78 -20 -127 -14 -31 -33 -59 -42 -62 -8
-3 -15 -11 -15 -16 0 -6 -6 -24 -14 -41 -8 -18 -24 -59 -36 -92 -31 -86 -41
-95 -97 -83 -34 8 -47 7 -53 -2 -4 -7 -15 -10 -24 -7 -10 4 -19 1 -22 -8 -3
-7 -12 -11 -20 -8 -8 3 -14 0 -14 -6 0 -6 7 -11 15 -11 13 0 13 -3 3 -20 -7
-11 -18 -20 -25 -20 -17 0 -17 -70 0 -71 9 0 9 -2 0 -5 -17 -7 -45 9 -158 94
-121 91 -178 148 -203 205 -11 24 -38 58 -61 76 -48 38 -53 69 -16 103 22 21
24 26 12 43 -17 22 -46 14 -54 -15 -9 -33 -18 -23 -36 38 -19 66 -22 98 -7
107 6 3 10 1 10 -4 0 -16 26 -13 39 3 10 12 8 13 -8 9 -12 -3 -21 -1 -21 5 0
5 11 13 24 16 13 3 26 15 29 27 3 12 10 18 16 14 7 -4 8 0 4 11 -5 13 -3 15 7
9 10 -6 12 -4 7 9 -6 14 -3 16 15 10 16 -5 20 -3 15 9 -6 17 25 33 43 22 6 -3
20 -3 31 0 17 6 19 9 8 16 -11 7 -9 10 8 15 13 4 20 10 17 15 -3 5 7 9 22 9
22 0 26 -3 22 -24 -6 -31 18 -36 101 -23 52 8 61 13 56 28 -3 9 0 21 7 26 8 4
19 21 27 38 12 29 13 29 28 10 11 -14 14 -15 10 -3 -8 23 0 27 32 18 18 -5 33
-3 45 5 15 11 24 10 59 -5 23 -11 43 -26 45 -34z m1202 46 c0 -14 -11 -21 -26
-15 -21 8 -17 23 6 23 11 0 20 -4 20 -8z m2868 -14 c-5 -15 -23 -11 -26 6 -2
11 2 14 13 10 9 -4 14 -11 13 -16z m-3212 1 c3 -6 17 -8 31 -4 34 8 20 -10
-17 -23 -25 -9 -31 -8 -40 7 -14 26 10 45 26 20z m-2510 -24 c13 -4 16 -65 3
-65 -5 0 -9 -9 -9 -20 0 -11 -4 -20 -10 -20 -5 0 -10 9 -10 20 0 11 5 20 10
20 12 0 13 37 1 44 -5 3 -11 -1 -15 -9 -3 -8 -12 -12 -20 -9 -15 6 -28 39 -18
48 4 5 35 1 68 -9z m525 -12 c6 -18 6 -30 0 -36 -14 -14 -19 -7 -27 31 -8 40
12 44 27 5z m2314 16 c10 -14 1 -21 -19 -13 -9 3 -13 10 -10 15 7 12 21 11 29
-2z m-3271 -20 c14 -11 26 -27 26 -35 0 -8 8 -14 19 -14 10 0 24 -7 31 -15 7
-8 19 -15 26 -15 8 0 14 -4 14 -9 0 -5 16 -19 34 -31 20 -12 33 -27 30 -34 -9
-24 43 -48 87 -41 25 4 39 3 39 -4 0 -6 7 -11 15 -11 8 0 15 7 15 16 0 16 23
44 36 44 4 0 13 8 20 17 19 28 29 7 10 -22 -21 -32 -15 -43 23 -37 27 4 30 7
25 28 -7 29 12 33 21 4 9 -27 -11 -61 -31 -53 -13 5 -15 2 -10 -14 10 -30 -18
-49 -50 -34 -33 15 -36 14 -29 -8 3 -10 1 -30 -4 -45 -10 -24 -9 -26 19 -26
16 0 32 5 36 11 3 6 15 9 25 6 11 -3 19 -1 19 4 0 13 44 11 57 -2 8 -8 9 -19
2 -37 -5 -13 -8 -27 -6 -29 8 -8 37 10 37 23 0 20 23 17 48 -6 24 -23 38 -25
45 -7 3 8 12 5 28 -10 28 -26 55 -17 45 14 -6 17 -3 20 19 15 14 -2 28 -8 30
-12 3 -5 19 -1 37 7 23 12 35 13 48 5 13 -8 21 -7 29 1 6 6 11 7 11 1 0 -6 -5
-15 -12 -22 -17 -17 18 -28 37 -12 12 10 15 9 15 -4 0 -20 24 -21 44 -1 17 17
30 20 21 5 -3 -5 0 -10 8 -10 8 0 20 -7 27 -15 7 -8 24 -15 38 -15 l25 0 -23
-26 c-19 -19 -32 -24 -60 -22 -29 2 -34 0 -32 -14 2 -10 -3 -18 -9 -18 -7 0
-4 -7 7 -16 13 -10 15 -17 7 -20 -7 -3 -9 -12 -6 -20 3 -9 -1 -14 -12 -14 -11
0 -15 5 -11 15 3 8 1 15 -4 15 -5 0 -9 10 -7 23 2 18 -2 22 -23 19 -16 -2 -30
5 -41 19 -9 12 -19 18 -21 13 -9 -15 10 -54 27 -54 19 0 38 -46 30 -71 -4 -11
-13 -19 -21 -19 -8 0 -12 -5 -9 -10 4 -6 16 -8 27 -4 17 5 19 3 13 -18 -13
-41 -29 -51 -74 -43 -44 7 -66 25 -32 25 27 0 27 16 0 23 -12 3 -18 10 -15 15
3 6 15 8 26 5 11 -3 20 0 20 6 0 6 -3 10 -7 9 -5 0 -16 2 -26 7 -11 4 -23 3
-30 -4 -15 -15 -25 -14 -29 3 -3 13 -6 13 -23 0 -19 -14 -19 -14 3 -30 26 -18
27 -22 3 -53 -15 -20 -21 -22 -39 -12 -13 7 -19 17 -16 26 4 10 0 15 -14 15
-33 0 -52 11 -52 30 0 25 -42 34 -58 12 -11 -14 -10 -18 2 -20 32 -7 15 -21
-17 -15 -33 5 -34 5 -29 -28 4 -28 3 -31 -14 -25 -11 5 -23 9 -29 10 -5 2 -18
7 -29 11 -20 9 -36 -8 -36 -37 0 -20 -15 -24 -25 -8 -3 6 -10 10 -16 10 -5 0
-9 -4 -9 -10 0 -5 7 -10 15 -10 8 0 15 -5 15 -11 0 -7 -14 -8 -42 -4 -41 7
-77 25 -49 25 8 0 11 10 9 28 -3 24 -7 27 -43 28 -22 1 -45 -2 -51 -7 -7 -6
-16 -4 -24 6 -14 17 -40 20 -40 5 0 -5 8 -10 18 -10 10 0 22 -3 26 -7 4 -5 18
-8 29 -8 15 0 23 -7 25 -21 3 -18 -4 -23 -33 -28 -20 -4 -43 -10 -51 -13 -8
-3 -14 0 -14 6 0 6 7 11 15 11 22 0 18 21 -5 27 -11 3 -20 13 -21 22 0 12 -2
11 -8 -4 -5 -11 -6 -26 -4 -32 3 -7 -2 -13 -12 -13 -13 0 -16 7 -13 30 5 35
-14 41 -43 14 -10 -9 -25 -14 -34 -10 -13 5 -13 9 -3 26 7 11 17 20 22 20 4 0
3 -7 -4 -15 -7 -8 -8 -15 -3 -15 17 0 62 61 56 76 -3 8 2 17 11 20 9 3 16 10
16 15 0 5 8 18 17 29 21 24 78 28 69 5 -4 -12 0 -14 22 -9 38 9 55 25 42 38
-14 14 -12 41 4 55 11 10 15 8 20 -6 3 -10 3 -2 1 17 -3 21 1 43 10 54 8 11
15 29 15 41 0 35 -246 295 -279 295 -49 0 -108 53 -79 71 19 12 22 11 52 -12z
m496 11 c0 -5 -4 -10 -10 -10 -5 0 -10 5 -10 10 0 6 5 10 10 10 6 0 10 -4 10
-10z m-1160 -10 c0 -5 -5 -10 -11 -10 -5 0 -7 5 -4 10 3 6 8 10 11 10 2 0 4
-4 4 -10z m150 -9 c0 -22 -16 -36 -24 -22 -8 12 3 41 15 41 5 0 9 -9 9 -19z
m2718 -5 c6 -13 12 -43 15 -67 2 -24 2 -34 0 -21 -2 12 -8 22 -13 22 -5 0 -7
8 -5 19 2 10 -3 30 -10 45 -8 14 -10 26 -6 26 4 0 13 -11 19 -24z m1524 -8
c-15 -15 -26 -4 -18 18 5 13 9 15 18 6 9 -9 9 -15 0 -24z m2419 22 c20 -11 26
-30 9 -30 -6 0 -20 9 -32 20 -23 21 -10 27 23 10z m-4791 -10 c0 -5 -2 -10 -4
-10 -2 0 -12 -3 -20 -6 -12 -5 -15 -2 -10 10 7 17 34 22 34 6z m-1801 -27 c7
-8 11 -16 9 -19 -8 -7 -38 7 -38 18 0 5 -4 6 -10 3 -5 -3 -10 1 -10 9 0 17 26
11 49 -11z m1058 13 c5 -5 -9 -42 -24 -65 -2 -2 -12 8 -24 22 -15 20 -30 27
-55 27 -19 0 -34 5 -34 11 0 6 7 9 15 6 8 -4 17 -2 20 3 6 9 92 6 102 -4z m73
-6 c0 -5 -4 -10 -10 -10 -5 0 -10 5 -10 10 0 6 5 10 10 10 6 0 10 -4 10 -10z
m2205 -15 c-1 -12 -87 -33 -130 -33 -30 1 -30 1 -2 5 16 3 27 11 27 20 0 12 3
13 13 4 10 -8 19 -7 33 4 21 16 59 16 59 0z m-2725 -5 c0 -5 -4 -10 -10 -10
-5 0 -10 5 -10 10 0 6 5 10 10 10 6 0 10 -4 10 -10z m2476 -1 c3 -6 17 -9 29
-6 17 3 25 -1 28 -15 4 -15 -1 -18 -27 -18 -23 0 -43 -9 -66 -32 -19 -17 -31
-25 -28 -17 3 8 9 22 13 32 4 10 3 17 -4 17 -15 0 -14 23 1 38 15 15 45 16 54
1z m99 1 c3 -5 1 -10 -4 -10 -6 0 -11 5 -11 10 0 6 2 10 4 10 3 0 8 -4 11 -10z
m-2255 -20 c0 -4 -6 -13 -14 -19 -17 -14 -31 2 -22 24 5 15 36 10 36 -5z m187
0 c3 -11 10 -20 15 -20 6 0 5 -7 -2 -15 -7 -8 -19 -15 -27 -15 -19 0 -33 41
-19 57 16 18 27 16 33 -7z m291 4 c14 -15 14 -16 -3 -13 -10 2 -20 10 -23 17
-5 17 6 15 26 -4z m1477 6 c3 -5 1 -10 -4 -10 -6 0 -11 5 -11 10 0 6 2 10 4
10 3 0 8 -4 11 -10z m3730 -32 c23 -43 14 -61 -15 -30 -12 12 -24 22 -28 23
-51 5 -61 15 -36 34 30 23 57 14 79 -27z m-6631 24 c2 -4 -7 -12 -20 -19 -28
-13 -43 1 -17 16 22 13 30 13 37 3z m993 -22 c2 -11 -2 -20 -7 -20 -6 0 -10
12 -10 27 0 29 12 24 17 -7z m1751 12 c2 -7 -3 -12 -12 -12 -9 0 -16 7 -16 16
0 17 22 14 28 -4z m-1308 -32 c0 -5 -4 -10 -9 -10 -6 0 -13 5 -16 10 -3 6 1
10 9 10 9 0 16 -4 16 -10z m-1594 -35 c-3 -8 -10 -15 -16 -15 -7 0 -8 5 -3 13
4 6 8 15 9 20 4 19 6 21 11 9 3 -7 2 -19 -1 -27z m174 20 c0 -16 -27 -32 -37
-22 -3 4 -3 13 0 22 8 20 37 20 37 0z m1048 -7 c-2 -5 -7 -9 -11 -9 -4 1 -14
1 -23 1 -13 0 -14 3 -4 14 12 16 43 10 38 -6z m117 2 c-3 -5 -11 -10 -16 -10
-6 0 -7 5 -4 10 3 6 11 10 16 10 6 0 7 -4 4 -10z m-1688 -19 c16 -25 5 -61
-18 -61 -23 0 -35 18 -20 33 6 6 11 19 11 29 0 23 12 23 27 -1z m2003 10 c0
-12 -28 -22 -34 -12 -3 5 -3 11 1 15 9 9 33 7 33 -3z m-750 -11 c0 -5 -2 -10
-4 -10 -3 0 -8 5 -11 10 -3 6 -1 10 4 10 6 0 11 -4 11 -10z m5793 3 c-7 -2
-19 -2 -25 0 -7 3 -2 5 12 5 14 0 19 -2 13 -5z m-2128 -13 c3 -5 -1 -10 -9
-10 -9 0 -16 5 -16 10 0 6 4 10 9 10 6 0 13 -4 16 -10z m-4835 -12 c0 -17 -20
-47 -20 -31 0 6 -3 18 -6 27 -4 11 -1 16 10 16 9 0 16 -6 16 -12z m50 8 c0 -3
-4 -8 -10 -11 -5 -3 -10 -1 -10 4 0 6 5 11 10 11 6 0 10 -2 10 -4z m258 -8 c9
-9 12 -9 12 0 0 7 4 12 10 12 5 0 7 -7 4 -15 -4 -9 0 -15 10 -15 14 0 14 -2
-1 -19 -18 -18 -18 -18 -37 3 l-19 21 8 -32 c6 -30 4 -33 -17 -33 -20 -1 -21
-2 -5 -11 9 -5 17 -19 17 -30 0 -16 -6 -20 -27 -17 -22 2 -28 8 -27 26 1 21
-1 21 -22 7 -27 -18 -39 -6 -47 48 -4 27 -2 37 8 37 8 0 17 -4 20 -10 3 -5 16
-15 27 -21 19 -10 20 -9 15 10 -4 16 -1 21 14 21 10 0 19 7 19 15 0 18 21 20
38 3z m1222 -22 c0 -20 42 -28 60 -11 13 12 17 11 27 -11 6 -13 8 -26 3 -29
-9 -5 -66 1 -79 9 -5 4 -24 -8 -41 -26 -26 -25 -34 -29 -41 -17 -13 21 -11 26
10 32 14 3 18 13 17 38 -2 19 -1 37 1 42 6 11 43 -12 43 -27z m5542 -28 c3
-24 1 -46 -4 -49 -4 -3 -1 -14 7 -25 23 -30 19 -47 -9 -40 -14 3 -27 2 -30 -3
-8 -12 -70 -23 -90 -15 -29 11 -17 23 31 30 42 6 45 8 28 20 -18 14 -18 14 0
28 16 12 17 16 6 30 -17 20 -41 21 -41 1 0 -19 -11 -19 -35 -1 -17 12 -17 16
-5 31 10 12 23 15 47 12 29 -5 35 -2 43 19 15 39 47 16 52 -38z m-6952 42 c0
-5 -5 -10 -11 -10 -5 0 -7 5 -4 10 3 6 8 10 11 10 2 0 4 -4 4 -10z m1320 -45
c0 -21 -31 -34 -57 -24 -42 15 -24 35 35 38 13 1 22 -5 22 -14z m750 -15 c0
-5 -4 -10 -10 -10 -5 0 -10 5 -10 10 0 6 5 10 10 10 6 0 10 -4 10 -10z m-2065
-70 c-10 -11 -22 -20 -27 -20 -5 0 -4 9 2 20 6 11 18 20 27 20 14 0 14 -2 -2
-20z m243 9 c-2 -6 -8 -10 -13 -10 -5 0 -11 4 -13 10 -2 6 4 11 13 11 9 0 15
-5 13 -11z m1082 -14 c0 -8 -4 -15 -10 -15 -5 0 -10 7 -10 15 0 8 5 15 10 15
6 0 10 -7 10 -15z m2610 -4 c0 -23 30 -37 42 -19 4 7 8 9 8 3 0 -5 -4 -16 -9
-24 -8 -12 -13 -12 -37 3 -26 18 -27 18 -22 -2 4 -13 0 -27 -9 -34 -14 -11
-15 -10 -10 7 19 62 19 73 0 78 -12 3 -9 5 10 6 20 1 27 -4 27 -18z m-67 2
c-7 -2 -19 -2 -25 0 -7 3 -2 5 12 5 14 0 19 -2 13 -5z m-3986 -28 c-4 -8 -11
-15 -17 -15 -14 0 -13 27 3 33 16 6 21 1 14 -18z m174 8 c8 -9 9 -14 3 -10 -7
4 -14 0 -18 -8 -8 -21 -26 -19 -26 3 0 34 20 42 41 15z m39 -38 c0 -8 10 -19
21 -26 18 -9 27 -7 51 11 16 12 36 19 44 16 8 -3 14 -1 14 4 0 6 5 10 11 10
12 0 2 -158 -12 -175 -4 -6 -3 -30 3 -53 6 -23 7 -49 4 -58 -6 -16 -8 -15 -21
2 -8 10 -15 27 -15 38 0 11 -5 16 -14 13 -15 -6 -46 26 -46 48 0 8 -4 15 -10
15 -5 0 -10 -17 -10 -39 0 -22 -6 -44 -15 -51 -9 -8 -15 -9 -15 -2 0 6 5 14
10 17 20 12 9 25 -20 25 -16 0 -30 3 -30 8 0 4 -11 12 -24 18 -21 10 -26 9
-31 -5 -6 -14 -8 -14 -21 4 -12 17 -12 20 1 28 26 14 17 29 -14 22 -27 -6 -29
-4 -35 36 -5 29 -12 43 -26 46 -11 3 -20 9 -20 14 0 13 14 11 28 -3 9 -9 12
-9 12 0 0 7 7 12 16 12 13 0 15 -8 12 -35 -2 -19 -3 -35 -1 -35 14 0 43 39 43
57 0 19 5 23 29 23 16 0 36 3 45 6 11 4 16 0 16 -14 0 -23 15 -38 24 -24 3 5
-1 18 -9 28 -16 22 -20 48 -5 39 6 -3 10 -13 10 -20z m3200 15 c0 -13 -11 -13
-30 0 -12 8 -11 10 8 10 12 0 22 -4 22 -10z m387 4 c-3 -3 -12 -4 -19 -1 -8 3
-5 6 6 6 11 1 17 -2 13 -5z m-3747 -14 c0 -5 -4 -10 -10 -10 -5 0 -10 5 -10
10 0 6 5 10 10 10 6 0 10 -4 10 -10z m3709 6 c-8 -8 -112 -36 -105 -28 4 4 24
12 44 18 38 12 69 17 61 10z m296 -54 c-3 -3 -11 0 -18 7 -9 10 -8 11 6 5 10
-3 15 -9 12 -12z m-374 -9 c13 -16 12 -17 -3 -4 -17 13 -22 21 -14 21 2 0 10
-8 17 -17z m341 -1 c-16 -5 -15 -22 2 -22 7 0 18 -6 25 -13 8 -11 5 -13 -19
-9 -18 3 -30 0 -30 -7 0 -6 12 -11 28 -12 24 0 24 -1 7 -8 -11 -5 -23 -7 -27
-4 -5 2 -8 -1 -8 -7 0 -7 -8 -9 -22 -4 -33 10 -88 6 -104 -7 -9 -7 -14 -8 -14
-1 0 22 53 52 92 52 35 0 39 3 44 29 5 22 10 28 22 23 10 -4 12 -7 4 -10z
m3137 4 c8 -9 10 -28 6 -49 -4 -20 -2 -37 3 -41 6 -3 8 -15 5 -26 -3 -11 -2
-28 3 -37 12 -30 13 -104 0 -100 -6 2 -11 15 -11 28 0 21 -4 24 -38 21 -40 -4
-45 1 -22 24 21 21 19 31 -11 59 -15 14 -23 25 -18 25 13 0 34 49 27 66 -3 8
3 21 13 29 24 18 29 18 43 1z m-3099 -16 c0 -5 -4 -10 -10 -10 -5 0 -10 5 -10
10 0 6 5 10 10 10 6 0 10 -4 10 -10z m3020 -42 c-1 -31 -2 -32 -15 -15 -7 11
-11 25 -8 33 10 25 23 15 23 -18z m-3215 2 c-3 -6 -20 -17 -36 -26 -29 -15
-30 -15 -20 5 11 20 26 29 49 30 7 1 10 -4 7 -9z m-3960 -9 c3 -5 1 -12 -5
-16 -5 -3 -10 1 -10 9 0 18 6 21 15 7z m49 -73 c12 -29 12 -35 -2 -45 -26 -21
-41 -15 -38 15 2 15 4 35 5 45 2 28 20 20 35 -15z m4081 22 c3 -6 -1 -7 -9 -4
-18 7 -21 14 -7 14 6 0 13 -4 16 -10z m-2090 -82 c-2 -31 -31 -35 -40 -7 -5
14 -3 25 4 27 6 2 11 11 11 20 1 16 2 16 14 0 7 -10 12 -28 11 -40z m-1825 2
c-11 -20 -13 -21 -30 -5 -17 15 -19 15 -28 -2 -6 -10 -14 -14 -19 -10 -4 5 0
14 9 21 10 7 14 16 11 20 -4 4 5 3 20 -3 23 -9 29 -8 34 6 4 10 8 12 10 6 3
-7 -1 -22 -7 -33z m-115 20 c3 -5 1 -10 -4 -10 -6 0 -11 5 -11 10 0 6 2 10 4
10 3 0 8 -4 11 -10z m1840 -20 c8 0 15 -7 15 -15 0 -9 -9 -15 -24 -15 -17 0
-25 7 -28 25 -6 30 3 42 14 20 5 -8 16 -15 23 -15z m-1542 -51 c3 -11 14 -19
26 -19 37 0 21 -35 -22 -45 -31 -8 -34 -17 -11 -36 13 -10 17 -10 23 0 5 8 11
-4 15 -33 4 -25 4 -52 -1 -58 -10 -17 -14 -34 -20 -84 l-5 -41 45 -14 c39 -11
44 -15 37 -33 -4 -12 -14 -20 -23 -18 -8 1 -18 -5 -21 -14 -5 -12 -2 -15 13
-11 10 2 23 2 29 -2 15 -9 19 -43 5 -48 -7 -3 -13 3 -13 12 0 9 -5 13 -10 10
-6 -4 -8 -15 -5 -25 3 -11 -1 -20 -11 -24 -13 -5 -15 -2 -11 14 7 26 0 25 -24
-2 -25 -31 -24 -41 3 -32 20 6 21 5 9 -10 -15 -18 -51 -22 -51 -4 0 6 -9 3
-20 -7 -11 -10 -20 -26 -20 -36 0 -14 -7 -17 -37 -13 -21 2 -42 10 -48 17 -5
7 -20 13 -32 14 -19 1 -23 -4 -23 -25 -1 -36 -24 -66 -45 -58 -9 3 -13 11 -9
18 5 8 2 9 -10 5 -13 -5 -21 2 -32 30 -13 30 -14 44 -3 80 6 24 21 55 32 69
17 22 18 31 9 62 -13 48 -4 101 22 129 26 28 36 29 36 3 0 -11 7 -23 15 -26 8
-4 15 -12 15 -20 0 -8 6 -14 14 -14 20 0 29 17 14 23 -23 8 -1 18 48 22 27 1
50 7 51 12 2 6 15 8 28 5 18 -3 25 0 25 11 0 11 -19 18 -71 27 -51 9 -68 15
-60 23 18 18 13 27 -13 27 -14 0 -28 5 -32 12 -5 8 -2 9 9 5 11 -4 17 -1 17 8
0 17 16 20 25 5 9 -15 27 -1 21 16 -3 8 -1 14 3 14 5 0 11 -4 13 -10 2 -6 8
-6 18 1 13 8 13 11 -2 20 -18 10 -25 39 -10 39 4 0 16 13 26 29 21 31 41 31
49 0z m-166 4 c-9 -9 -20 -13 -24 -9 -4 4 -1 11 7 16 25 16 35 11 17 -7z
m1333 0 c0 -14 -19 -38 -25 -32 -8 8 5 39 16 39 5 0 9 -3 9 -7z m-1710 -15 c0
-7 -4 -19 -9 -26 -7 -11 -10 -10 -15 3 -3 9 -4 21 0 26 8 13 24 11 24 -3z
m430 2 c0 -5 -4 -10 -10 -10 -5 0 -10 5 -10 10 0 6 5 10 10 10 6 0 10 -4 10
-10z m510 -35 c-14 -8 -36 -14 -50 -14 -24 0 -24 0 -6 14 11 8 34 15 50 15
l31 -1 -25 -14z m3251 -8 c-10 -9 -11 -8 -5 6 3 10 9 15 12 12 3 -3 0 -11 -7
-18z m-31 -12 c-7 -9 -15 -13 -17 -11 -7 7 7 26 19 26 6 0 6 -6 -2 -15z
m-3052 -10 c15 -13 58 -141 54 -162 -5 -26 -5 -26 -18 8 -7 19 -15 46 -18 60
-3 15 -13 30 -22 33 -22 9 -141 -22 -181 -46 -46 -27 -41 -9 5 22 20 14 40 29
43 33 3 5 8 8 10 6 12 -7 49 15 64 37 12 19 21 23 38 18 12 -3 23 -8 25 -9z
m4526 -9 c21 -7 42 -19 46 -26 5 -9 9 -9 14 -1 14 23 25 10 22 -26 -2 -21 1
-44 6 -50 8 -10 5 -13 -11 -13 -12 0 -21 6 -21 15 0 8 -4 15 -10 15 -5 0 -10
6 -10 13 0 16 -95 58 -114 51 -25 -10 -19 12 7 24 29 14 26 14 71 -2z m-5539
-46 c-27 -12 -35 -12 -35 0 0 6 12 10 28 9 24 0 25 -1 7 -9z m5341 -13 c-9
-36 31 -77 80 -84 35 -4 50 -14 91 -62 64 -73 71 -85 45 -77 -19 6 -127 -27
-146 -45 -19 -17 3 -20 28 -4 24 16 26 16 32 1 3 -9 12 -16 20 -16 8 0 14 -4
14 -10 0 -5 -4 -10 -9 -10 -4 0 -25 -12 -46 -26 l-38 -25 5 25 c4 17 1 26 -8
26 -7 0 -20 3 -29 6 -11 5 -18 0 -22 -16 l-6 -24 -9 23 c-10 29 -1 44 23 38
11 -3 19 -1 19 4 0 5 -6 10 -12 10 -47 5 -68 4 -68 -4 0 -4 -5 -5 -11 -2 -7 5
-4 14 7 26 13 15 19 17 26 7 6 -11 8 -10 8 0 0 7 -12 24 -26 37 l-27 25 -34
-21 c-19 -12 -37 -19 -40 -15 -3 3 -12 -2 -20 -12 -12 -15 -13 -14 -2 8 7 14
24 43 39 65 15 22 44 70 64 108 37 66 64 89 52 44z m50 8 c18 -15 18 -15 -5
-13 -14 2 -26 9 -29 16 -5 17 10 15 34 -3z m1924 5 c0 -5 -4 -10 -9 -10 -6 0
-13 5 -16 10 -3 6 1 10 9 10 9 0 16 -4 16 -10z m-7080 -14 c0 -8 6 -17 13 -19
6 -3 -2 -6 -20 -6 -35 -1 -53 16 -32 30 21 13 39 11 39 -5z m540 -6 c0 -5 -5
-10 -11 -10 -5 0 -7 5 -4 10 3 6 8 10 11 10 2 0 4 -4 4 -10z m4760 -15 c0 -8
-7 -15 -15 -15 -8 0 -15 7 -15 15 0 8 7 15 15 15 8 0 15 -7 15 -15z m-5230 -5
c0 -5 -2 -10 -4 -10 -3 0 -8 5 -11 10 -3 6 -1 10 4 10 6 0 11 -4 11 -10z m850
0 c0 -5 -4 -10 -10 -10 -5 0 -10 5 -10 10 0 6 5 10 10 10 6 0 10 -4 10 -10z
m6145 -8 c-3 -3 -11 0 -18 7 -9 10 -8 11 6 5 10 -3 15 -9 12 -12z m-5908 -89
c13 2 23 0 23 -4 0 -5 -8 -9 -17 -10 -14 0 -13 -3 7 -17 52 -34 110 -101 110
-125 0 -14 7 -44 15 -67 21 -60 19 -79 -9 -90 -18 -6 -27 -20 -32 -45 -3 -19
-13 -39 -21 -44 -20 -11 -10 -58 24 -107 24 -36 26 -64 9 -105 -5 -12 -1 -15
15 -15 12 1 24 -5 27 -13 3 -10 0 -12 -13 -7 -11 4 -25 -2 -40 -16 -21 -22
-22 -27 -13 -91 11 -85 -4 -172 -33 -187 -13 -8 -19 -7 -19 0 0 6 -4 9 -9 6
-5 -3 -14 1 -21 9 -10 13 -10 19 5 35 9 10 14 24 10 30 -4 7 2 14 14 17 28 7
27 14 -10 46 -26 22 -30 31 -24 56 5 24 2 33 -17 45 -31 20 -191 7 -216 -17
-15 -15 -17 -15 -35 0 -18 17 -18 16 -12 -10 8 -29 6 -31 -19 -21 -9 3 -13 10
-10 15 3 6 0 16 -6 24 -9 11 -9 15 -1 15 18 0 12 36 -9 55 -11 10 -18 20 -15
23 3 3 0 11 -5 17 -8 9 -6 14 6 19 11 4 14 13 10 31 -6 24 7 35 18 16 3 -5 22
-12 41 -15 29 -6 35 -11 35 -31 0 -28 -8 -30 -45 -13 -33 15 -37 9 -23 -30 10
-27 18 -32 44 -32 30 0 82 29 126 70 12 11 28 20 35 20 18 0 16 20 -3 41 -29
32 -12 45 67 47 40 2 76 5 79 8 3 3 -4 12 -14 20 -12 9 -15 14 -7 14 30 0 37
29 29 123 -9 111 -25 153 -72 187 -21 14 -33 31 -31 39 3 7 -5 33 -19 56 l-24
43 22 21 21 22 15 -31 c11 -25 19 -31 37 -27z m4184 26 c16 -30 -3 -45 -25
-20 -10 11 -15 25 -11 30 10 17 23 13 36 -10z m-4525 -35 c8 -6 15 -31 15 -55
2 -63 1 -64 -21 -44 -16 14 -19 30 -18 79 0 33 3 54 6 46 2 -8 11 -20 18 -26z
m6254 6 c0 -5 -7 -7 -15 -4 -8 4 -15 8 -15 10 0 2 7 4 15 4 8 0 15 -4 15 -10z
m-6127 -50 c3 -13 11 -18 20 -14 8 3 18 1 21 -5 7 -11 1 -16 -36 -25 -21 -5
-30 -2 -38 13 -12 23 -4 51 15 51 7 0 15 -9 18 -20z m4982 -9 c3 -5 1 -12 -4
-15 -13 -8 -42 4 -35 15 7 12 31 12 39 0z m-845 -31 c0 -5 -9 -12 -20 -15 -11
-3 -20 -11 -20 -16 0 -6 -5 -7 -11 -4 -6 5 -3 13 10 22 12 8 19 19 16 24 -3 5
1 6 9 3 9 -3 16 -10 16 -14z m-4170 -45 c0 -28 -4 -35 -20 -35 -23 0 -28 38
-8 58 20 20 28 14 28 -23z m4414 4 c30 -23 35 -41 9 -32 -23 8 -53 34 -53 45
0 14 16 9 44 -13z m-4555 -19 c6 0 11 5 11 10 0 14 33 13 48 -2 7 -7 12 -18
12 -26 0 -7 6 -20 14 -28 15 -14 11 -49 -7 -71 -5 -7 -7 -19 -4 -27 3 -8 0
-22 -8 -33 -13 -17 -14 -16 -24 10 -6 16 -11 33 -11 38 0 6 -13 27 -29 47 -17
22 -31 53 -33 76 -3 31 -2 35 7 22 7 -9 17 -16 24 -16z m5161 14 c0 -8 -4 -12
-10 -9 -5 3 -10 10 -10 16 0 5 5 9 10 9 6 0 10 -7 10 -16z m-5203 -50 c-1 -2
-13 -1 -26 3 -16 4 -19 8 -10 14 12 7 45 -9 36 -17z m5253 11 c11 -13 8 -15
-14 -15 -25 0 -33 10 -19 23 10 11 19 8 33 -8z m-840 -77 c0 -19 -2 -20 -10
-8 -13 19 -13 30 0 30 6 0 10 -10 10 -22z m906 -6 c1 -12 4 -25 8 -29 8 -8
-13 -33 -29 -33 -14 0 -27 52 -18 75 8 23 38 13 39 -13z m-5755 -35 c-1 -12
-15 -9 -19 4 -3 6 1 10 8 8 6 -3 11 -8 11 -12z m1122 1 c15 -11 10 -13 -33
-13 -48 0 -64 8 -37 18 22 10 53 7 70 -5z m692 -13 c14 -13 25 -33 25 -45 0
-16 -6 -20 -33 -20 -59 0 -93 48 -54 75 29 20 34 19 62 -10z m3248 18 c-7 -2
-21 -2 -30 0 -10 3 -4 5 12 5 17 0 24 -2 18 -5z m204 -71 c29 -31 56 -68 61
-82 30 -81 51 -162 57 -210 7 -64 -10 -244 -26 -268 -7 -13 -8 -5 -4 30 7 54
0 75 -20 58 -10 -8 -15 0 -24 35 -6 25 -9 51 -5 57 4 5 3 13 -2 17 -5 3 -22
31 -38 61 -34 65 -51 86 -41 50 4 -14 -14 5 -39 42 -26 38 -64 80 -86 94 -22
15 -38 29 -36 32 8 7 67 -38 133 -102 40 -39 73 -83 93 -124 21 -43 34 -61 40
-53 5 10 12 7 24 -10 21 -30 22 -5 2 48 -8 21 -17 50 -20 65 -3 14 -22 48 -42
75 l-35 48 38 -40 c21 -22 46 -51 55 -65 l18 -25 -11 30 c-15 45 -54 107 -83
134 -14 14 -26 30 -26 38 0 7 -9 13 -21 13 -11 0 -18 4 -15 9 7 11 -81 67
-115 74 -17 3 -14 5 11 5 42 1 141 -46 155 -74 6 -11 20 -33 33 -49 23 -30 23
-30 -1 20 -27 54 -46 75 -105 112 -37 24 -37 24 -7 18 19 -3 48 -26 82 -63z
m-5497 32 c0 -17 -22 -14 -28 4 -2 7 3 12 12 12 9 0 16 -7 16 -16z m53 -14 c3
-11 1 -20 -4 -20 -5 0 -9 2 -9 4 0 2 -3 11 -6 20 -3 9 -2 16 4 16 5 0 12 -9
15 -20z m-278 -15 c14 -13 25 -29 25 -35 0 -7 8 -9 20 -5 17 5 20 2 20 -24 0
-24 -4 -31 -20 -31 -29 0 -25 -30 7 -56 25 -20 26 -24 15 -48 -7 -15 -12 -42
-12 -60 0 -34 0 -34 -36 -26 -45 10 -64 27 -41 36 9 3 17 11 17 17 0 6 7 19
17 29 15 17 15 18 -5 18 -26 0 -49 37 -33 53 6 6 11 18 11 28 0 25 -46 69 -73
69 -13 0 -32 7 -43 15 -19 15 -19 15 0 30 32 24 103 19 131 -10z m5225 5 c0
-5 -4 -10 -10 -10 -5 0 -10 5 -10 10 0 6 5 10 10 10 6 0 10 -4 10 -10z m-4285
-27 c14 -16 29 -40 32 -55 3 -15 9 -25 14 -22 14 8 10 -32 -4 -44 -10 -9 -22
-4 -50 19 -20 17 -37 35 -37 41 0 6 10 3 22 -8 l21 -19 -6 38 c-3 20 -13 44
-21 53 -18 18 -20 24 -6 24 5 0 21 -12 35 -27z m4367 17 c44 -13 58 -28 23
-26 -14 0 -25 4 -25 8 0 3 -17 10 -37 16 -21 5 -29 10 -18 11 11 0 37 -4 57
-9z m333 -38 c-4 -5 -75 37 -75 44 0 3 18 -6 39 -18 22 -12 38 -24 36 -26z
m-178 -3 c23 -17 43 -32 43 -35 0 -3 -10 2 -22 10 -26 18 -42 21 -33 6 4 -6
-14 0 -39 12 -25 12 -46 28 -46 36 0 21 44 7 97 -29z m36 23 c15 -2 30 -9 34
-15 9 -15 -54 0 -80 19 -20 15 -20 16 -2 9 11 -4 32 -10 48 -13z m-4496 -14
c-3 -8 -6 -5 -6 6 -1 11 2 17 5 13 3 -3 4 -12 1 -19z m608 12 c3 -5 3 -15 -1
-21 -6 -11 -23 6 -24 24 0 10 18 9 25 -3z m962 4 c-3 -3 -12 -4 -19 -1 -8 3
-5 6 6 6 11 1 17 -2 13 -5z m2568 -4 c-3 -5 -13 -10 -21 -10 -8 0 -14 -6 -14
-13 0 -16 69 -40 125 -42 64 -3 203 -80 183 -101 -4 -3 -23 11 -43 31 -21 20
-40 33 -44 30 -9 -10 69 -77 83 -72 8 3 23 -8 35 -23 25 -35 28 -54 3 -25 -18
21 -62 32 -62 14 0 -5 18 -29 41 -52 22 -23 37 -35 33 -27 -7 13 -5 13 9 1 20
-16 23 -35 5 -26 -7 4 -6 1 3 -7 15 -13 64 -98 55 -98 -2 0 -31 35 -64 78 -93
118 -129 158 -137 150 -5 -4 -2 -14 5 -23 7 -9 8 -15 2 -15 -6 0 -12 6 -15 13
-3 9 -8 8 -18 -4 -8 -9 -36 -24 -64 -34 -27 -10 -56 -23 -63 -28 -10 -8 -16
-7 -23 4 -7 12 -9 12 -9 -2 0 -15 -38 -39 -62 -39 -6 0 -17 -8 -24 -17 -11
-14 -15 -15 -22 -5 -6 9 -19 11 -38 6 -28 -6 -28 -6 -9 9 19 15 17 15 -25 13
-25 -2 -58 1 -75 6 -30 8 -133 -1 -105 -10 8 -2 24 -13 35 -23 11 -10 41 -27
67 -39 44 -19 70 -40 51 -40 -4 0 -44 13 -87 30 -109 40 -113 30 -13 -36 20
-13 37 -29 37 -34 0 -6 6 -10 13 -10 6 -1 26 -12 42 -26 27 -23 27 -24 5 -14
-14 7 -51 28 -82 48 -120 73 -252 80 -332 18 -27 -22 -14 -31 65 -46 73 -13
168 -46 107 -37 -16 2 -28 1 -28 -3 0 -10 112 -60 122 -54 15 9 8 20 -19 30
l-28 10 33 0 c29 1 32 -2 30 -28 -1 -15 -5 -28 -8 -29 -3 0 -18 -2 -34 -4 -20
-3 -34 2 -42 13 -7 9 -16 14 -20 9 -4 -4 -2 -7 5 -7 7 0 9 -5 6 -11 -4 -5 6
-15 23 -21 16 -6 37 -24 47 -40 9 -15 34 -37 56 -48 21 -11 38 -25 36 -31 -1
-7 4 -14 12 -17 8 -3 11 0 7 7 -5 8 -1 9 16 2 13 -5 35 -12 49 -15 30 -6 79
-43 79 -58 0 -7 -10 -3 -22 8 -13 11 -48 26 -78 33 -85 20 -90 21 -87 34 1 6
-14 19 -33 29 -19 10 -42 23 -51 29 -10 7 -20 11 -24 10 -4 -1 -12 5 -19 15
-7 9 -18 14 -23 11 -6 -4 -16 0 -23 8 -7 8 -9 15 -4 15 14 1 -57 30 -72 30
-25 0 -14 -28 14 -35 32 -8 90 -60 103 -92 7 -20 16 -23 64 -23 30 0 55 -3 55
-8 0 -10 -116 2 -167 18 -30 9 -43 19 -48 37 -3 13 -15 33 -26 44 -20 20 -22
20 -40 3 -25 -22 -24 -8 2 35 11 18 29 35 40 38 19 5 18 6 -4 27 -13 12 -42
28 -65 35 -23 8 -42 18 -42 23 0 22 -28 4 -52 -33 -22 -33 -26 -37 -24 -18 4
36 52 107 85 123 16 9 31 22 34 30 3 8 23 18 44 22 52 10 125 43 118 55 -4 5
-11 9 -17 9 -6 0 -17 8 -24 18 -13 16 -15 16 -33 -5 -11 -13 -27 -23 -36 -23
-9 0 -14 -4 -11 -8 3 -5 -8 -9 -24 -10 -20 0 -33 6 -40 19 -6 10 -19 19 -28
19 -10 0 -23 5 -30 12 -9 9 -12 9 -12 0 0 -8 -8 -10 -24 -6 -18 4 -28 0 -42
-21 -36 -50 -56 -71 -50 -52 9 27 13 43 9 34 -3 -4 -9 -5 -14 -1 -5 3 -9 1 -9
-5 0 -5 -11 -21 -24 -36 -25 -27 -41 -20 -47 20 -3 26 11 94 21 100 10 6 1 86
-10 99 -5 4 -11 -27 -15 -70 -8 -88 -23 -114 -67 -114 -33 0 -40 29 -8 37 16
4 18 8 9 19 -6 8 -17 14 -23 14 -14 0 -18 65 -6 111 11 40 21 46 129 75 49 13
68 15 82 6 15 -9 19 -8 24 8 4 11 12 17 21 13 9 -3 14 1 14 13 1 18 1 18 11 2
5 -10 16 -18 23 -18 29 0 79 -97 95 -184 13 -70 16 -74 38 -54 10 9 56 35 103
58 47 23 92 48 101 56 8 8 20 14 25 15 5 0 36 20 69 44 74 55 183 112 233 124
20 5 38 9 40 10 2 1 0 -3 -3 -9z m-4992 -103 c-3 -5 5 -19 18 -33 l22 -24 -37
0 -37 0 2 63 c1 34 7 71 13 82 9 17 11 13 17 -30 3 -27 4 -54 2 -58z m2377 93
c-8 -5 -22 -9 -30 -9 -10 0 -8 3 5 9 27 12 43 12 25 0z m4424 -73 c7 -43 11
-49 44 -63 29 -12 34 -17 22 -24 -11 -6 -15 -20 -12 -49 4 -41 22 -48 22 -9 0
34 7 17 15 -37 7 -48 6 -49 -12 -34 -10 9 -31 19 -46 21 -25 5 -30 1 -39 -23
-12 -34 -33 -40 -25 -7 4 12 2 67 -3 122 -15 150 15 238 34 103z m-1519 11
c22 -24 27 -31 10 -16 -16 15 -50 36 -75 48 -44 21 -44 21 -10 15 23 -3 48
-19 75 -47z m140 42 c3 -6 -1 -7 -9 -4 -18 7 -21 14 -7 14 6 0 13 -4 16 -10z
m95 -35 c14 -19 14 -19 -2 -6 -10 7 -18 18 -18 24 0 6 1 8 3 6 1 -2 9 -13 17
-24z m-5470 -11 c0 -8 -4 -12 -10 -9 -5 3 -10 10 -10 16 0 5 5 9 10 9 6 0 10
-7 10 -16z m2575 -9 c125 -25 125 -26 146 -67 29 -57 36 -131 15 -163 -9 -14
-23 -25 -31 -25 -8 0 -15 -5 -15 -11 0 -8 -4 -8 -13 -1 -7 6 -68 18 -136 26
-129 16 -162 25 -95 27 38 1 38 1 12 11 -16 5 -28 14 -28 20 0 6 -7 7 -15 4
-10 -3 -18 1 -22 12 -12 33 -37 50 -62 40 -19 -6 -24 -4 -28 13 -4 12 -11 18
-20 15 -8 -3 -19 -6 -24 -6 -4 0 -6 -6 -3 -14 3 -7 -2 -16 -10 -19 -9 -4 -13
-12 -11 -19 4 -9 -5 -13 -27 -12 -44 2 -39 18 20 72 57 53 86 69 175 97 51 17
78 20 105 14 20 -4 51 -11 67 -14z m3474 -18 l0 -22 -11 23 c-6 12 -14 22 -18
22 -4 0 -24 -18 -43 -40 -21 -22 -39 -35 -43 -29 -6 10 22 38 39 39 4 0 7 5 7
11 0 7 8 18 17 24 24 17 53 1 52 -28z m-2374 -17 c50 -8 113 -26 190 -53 l39
-15 2 -78 c2 -93 13 -164 25 -164 4 0 20 12 34 27 25 28 30 24 16 -12 -5 -11
-4 -25 2 -33 5 -7 8 -14 6 -15 -2 -2 -24 -16 -48 -31 l-44 -28 22 31 c19 26
20 31 6 31 -9 0 -14 -4 -10 -9 3 -6 -4 -15 -15 -21 -16 -9 -22 -8 -27 6 -3 9
0 20 8 25 9 6 4 7 -16 2 -16 -3 -38 -6 -47 -5 -10 0 -18 -3 -18 -9 0 -5 -5 -9
-11 -9 -6 0 -1 13 10 29 12 16 21 37 21 46 0 9 5 13 10 10 6 -3 10 -2 10 4 0
22 -24 23 -42 1 -17 -21 -24 -22 -103 -18 -97 6 -127 18 -43 18 55 0 105 18
128 45 7 8 16 13 20 10 13 -8 20 9 11 24 -6 9 -22 6 -67 -14 -32 -14 -62 -31
-66 -38 -5 -9 -11 -7 -21 7 -10 13 -20 16 -36 11 -12 -4 -20 -9 -17 -13 6 -5
-7 -14 -80 -51 -22 -12 -59 -37 -81 -56 -23 -19 -45 -35 -49 -35 -15 0 42 53
106 97 73 52 120 93 120 105 0 5 -9 4 -19 -2 -25 -13 -38 4 -20 26 29 35 -2
20 -55 -27 -66 -59 -85 -62 -26 -4 22 22 40 45 40 51 0 12 -37 30 -52 26 -21
-5 -3 21 40 58 l47 42 -43 -23 c-23 -13 -68 -46 -100 -73 -46 -41 -53 -45 -38
-21 11 17 26 36 33 44 18 18 8 28 -12 11 -12 -10 -15 -10 -15 0 0 7 -7 10 -17
6 -13 -5 -12 -1 6 18 13 13 29 22 35 20 7 -3 26 2 42 11 16 8 43 15 59 15 17
0 37 5 45 10 8 6 24 8 35 4 11 -3 43 -9 70 -14z m1740 -43 c18 -26 20 -44 3
-25 -7 8 -29 32 -48 53 l-35 38 32 -22 c18 -12 39 -32 48 -44z m-3825 37 c0
-2 -7 -4 -15 -4 -8 0 -15 4 -15 10 0 5 7 7 15 4 8 -4 15 -8 15 -10z m-1244
-39 c8 -56 2 -63 -31 -41 -38 25 -42 46 -16 68 33 26 39 23 47 -27z m4964 -3
c0 -11 -3 -12 -14 -3 -8 7 -14 21 -13 32 1 19 2 19 14 3 7 -10 13 -24 13 -32z
m-5215 -18 c-23 -17 -32 -10 -15 11 7 8 17 12 23 8 6 -4 3 -11 -8 -19z m-124
-64 c38 -73 41 -97 12 -86 -11 5 -13 2 -8 -11 15 -34 18 -76 6 -69 -6 4 -11
13 -11 20 0 17 -39 97 -58 119 -15 17 -15 19 0 28 13 7 15 15 7 42 -11 40 -11
39 3 35 6 -2 28 -37 49 -78z m5959 64 c0 -8 -4 -12 -10 -9 -5 3 -10 10 -10 16
0 5 5 9 10 9 6 0 10 -7 10 -16z m-6230 -14 c0 -13 -34 -30 -60 -30 -25 0 -17
18 14 30 29 12 46 12 46 0z m1031 -7 c13 -16 12 -17 -3 -4 -10 7 -18 15 -18
17 0 8 8 3 21 -13z m759 -17 c9 -12 8 -35 -6 -106 -28 -143 -41 -145 -38 -4 1
66 2 120 3 122 4 8 30 0 41 -12z m3884 -175 c2 -42 5 -80 6 -86 1 -5 1 -30 0
-55 -2 -38 -4 -33 -11 30 -17 167 -20 187 -34 225 -23 64 -16 75 11 16 17 -38
25 -77 28 -130z m671 169 c3 -5 -1 -10 -9 -10 -9 0 -16 5 -16 10 0 6 4 10 9
10 6 0 13 -4 16 -10z m392 -22 c-3 -8 -6 -5 -6 6 -1 11 2 17 5 13 3 -3 4 -12
1 -19z m-1322 -8 c3 -5 2 -10 -4 -10 -5 0 -13 5 -16 10 -3 6 -2 10 4 10 5 0
13 -4 16 -10z m315 -32 c0 -10 14 -45 31 -78 33 -61 54 -170 30 -156 -6 4 -11
18 -11 32 0 14 -6 40 -14 59 -8 18 -12 36 -9 39 3 3 -3 20 -14 39 -21 35 -43
125 -24 97 6 -8 11 -23 11 -32z m-4032 -37 c2 -26 -1 -41 -9 -41 -7 0 -8 -4
-2 -12 12 -17 14 -58 3 -58 -10 0 -16 20 -24 90 -3 25 -9 56 -13 70 -6 24 -6
24 18 9 18 -12 25 -27 27 -58z m3679 56 c-5 -14 36 -18 49 -4 12 11 21 8 28
-9 5 -12 1 -14 -16 -8 -20 6 -21 5 -10 -8 10 -13 10 -17 -2 -21 -7 -3 -18 -1
-25 6 -7 7 -18 7 -38 -3 l-28 -13 38 -10 c27 -7 37 -14 37 -29 0 -14 -5 -18
-16 -14 -9 4 -13 2 -8 -5 4 -7 1 -10 -7 -7 -8 3 -13 15 -11 26 2 15 -2 22 -12
22 -9 0 -16 -4 -16 -10 0 -5 -4 -10 -10 -10 -5 0 -9 5 -7 11 1 6 -4 14 -10 16
-7 3 -13 0 -13 -6 0 -13 -40 -14 -60 -1 -13 8 -13 11 -1 22 11 10 14 10 18 1
3 -7 11 -13 19 -13 7 0 11 6 8 14 -4 10 5 16 28 21 18 4 39 16 46 26 15 22 27
25 19 6z m865 -27 c14 -25 15 -30 3 -30 -8 0 -15 5 -15 12 0 6 -7 20 -17 30
-13 14 -13 18 -2 18 8 0 22 -14 31 -30z m-4665 -20 c14 -53 1 -59 -27 -13 -17
29 -18 38 -8 44 21 14 23 11 35 -31z m4913 31 c0 -5 -6 -11 -12 -14 -10 -3
-10 -7 0 -19 9 -12 11 -29 5 -65 -8 -43 -11 -48 -38 -51 -27 -3 -28 -2 -14 14
11 15 8 14 -16 -3 -52 -36 -73 -66 -85 -118 -15 -66 -26 -79 -53 -60 -12 8
-37 15 -57 15 l-35 1 31 28 c17 15 34 41 38 57 4 16 24 45 44 65 20 20 57 60
81 88 41 50 69 69 99 70 6 1 12 -3 12 -8z m-1977 -38 c-7 -2 -10 -10 -7 -17 5
-13 -53 -86 -68 -86 -10 0 9 44 41 93 18 28 27 35 35 26 8 -8 8 -13 -1 -16z
m557 -26 c26 -16 31 -23 18 -25 -9 -2 -26 2 -37 7 -11 6 -27 11 -35 11 -9 0
-30 9 -48 21 l-33 21 50 -7 c28 -4 66 -16 85 -28z m390 13 c0 -5 -2 -10 -4
-10 -3 0 -8 5 -11 10 -3 6 -1 10 4 10 6 0 11 -4 11 -10z m48 -16 c7 -14 8 -23
2 -19 -15 9 -32 45 -22 45 5 0 14 -12 20 -26z m-4751 -16 c14 -18 23 -72 14
-86 -8 -13 -26 17 -41 71 -9 29 8 39 27 15z m573 -75 c82 -85 130 -154 136
-196 5 -26 0 -38 -26 -64 -29 -29 -34 -31 -53 -19 -12 8 -39 19 -60 26 -21 6
-45 23 -54 36 -12 19 -18 22 -24 12 -6 -9 -17 -4 -44 22 -33 32 -35 33 -35 11
0 -12 -4 -20 -9 -16 -6 3 -10 35 -10 70 0 36 -2 69 -6 74 -3 5 -1 12 4 15 5 3
3 22 -4 43 l-13 38 31 6 c18 3 41 10 52 16 26 15 38 7 115 -74z m5700 69 c0
-4 -5 -13 -10 -18 -16 -16 -40 -142 -40 -211 0 -34 -3 -68 -6 -77 -9 -23 -29
-20 -43 7 -11 20 -9 29 8 58 11 19 25 66 31 104 11 72 37 145 52 145 4 0 8 -4
8 -8z m-1887 -16 c9 -7 17 -16 17 -20 0 -11 -21 -6 -36 8 -26 27 -13 36 19 12z
m-4066 -2 c-3 -3 -12 -4 -19 -1 -8 3 -5 6 6 6 11 1 17 -2 13 -5z m825 -35 c-7
-56 22 -83 110 -104 15 -4 32 -13 39 -21 6 -8 18 -14 25 -14 19 0 17 -13 -6
-43 -11 -14 -20 -30 -20 -37 0 -14 -60 -40 -77 -33 -8 3 -25 26 -40 50 -23 39
-28 43 -38 29 -15 -19 -54 -27 -77 -14 -11 5 -18 20 -18 36 0 19 -9 33 -30 47
-28 19 -45 43 -37 52 9 8 76 -28 80 -44 3 -16 5 -16 12 2 31 81 56 126 67 122
7 -2 12 -15 10 -28z m-314 2 c3 -8 -1 -12 -9 -9 -7 2 -15 10 -17 17 -3 8 1 12
9 9 7 -2 15 -10 17 -17z m5222 -4 c0 -16 -63 -97 -75 -97 -38 0 -49 -70 -18
-117 13 -19 14 -26 4 -32 -9 -6 -6 -10 10 -14 21 -6 21 -7 -10 -38 -23 -23
-50 -36 -93 -46 -33 -8 -62 -12 -65 -9 -3 2 5 26 16 51 17 38 19 55 12 84 -33
134 -40 198 -22 217 12 11 241 12 241 1z m-2285 -36 c-3 -12 -10 -19 -15 -16
-5 3 -10 -1 -13 -7 -3 -9 -7 -7 -12 5 -5 11 -1 25 11 38 21 23 39 11 29 -20z
m1523 22 c3 -12 -16 -18 -48 -13 -22 3 -26 10 -11 19 19 12 54 8 59 -6z
m-5898 -11 c0 -5 25 -36 56 -70 30 -34 53 -66 49 -72 -3 -5 -25 -8 -48 -7 -35
2 -43 7 -45 25 -4 26 -22 19 -22 -9 0 -30 -20 -22 -22 9 -3 68 7 132 22 132 6
0 10 -4 10 -8z m1545 -12 c3 -5 1 -10 -4 -10 -6 0 -11 5 -11 10 0 6 2 10 4 10
3 0 8 -4 11 -10z m5658 -22 c39 -88 41 -98 24 -116 -11 -10 -20 -13 -26 -7 -8
10 -24 155 -16 155 2 0 10 -15 18 -32z m-6583 -49 l0 -51 -25 16 c-13 9 -32
16 -40 16 -12 0 -15 8 -13 27 3 30 28 45 28 17 0 -17 2 -16 22 4 12 12 24 22
25 22 2 0 3 -23 3 -51z m3520 20 c0 -25 25 -35 45 -19 8 7 15 8 15 3 0 -16
-206 -111 -217 -99 -5 5 101 56 116 56 6 0 11 5 11 11 0 5 -4 7 -10 4 -6 -4
-7 1 -3 11 5 14 3 16 -10 11 -61 -25 -61 -23 -1 22 41 31 54 31 54 0z m-623
-6 c-9 -9 -20 -13 -24 -9 -4 4 1 14 11 22 25 18 35 8 13 -13z m1496 -5 c6 -22
5 -22 -8 -4 -17 22 -20 40 -6 32 5 -3 11 -16 14 -28z m-3463 12 c0 -5 -2 -10
-4 -10 -3 0 -8 5 -11 10 -3 6 -1 10 4 10 6 0 11 -4 11 -10z m2330 -14 c0 -2
-7 -9 -15 -16 -12 -10 -15 -10 -15 4 0 9 7 16 15 16 8 0 15 -2 15 -4z m925
-16 c3 -6 -1 -7 -9 -4 -18 7 -21 14 -7 14 6 0 13 -4 16 -10z m-1861 -44 c-15
-24 -15 -28 0 -51 23 -34 20 -43 -4 -12 -11 14 -20 31 -20 37 0 18 34 72 38
61 2 -5 -4 -21 -14 -35z m116 36 c0 -5 -7 -16 -16 -23 -14 -12 -12 -16 17 -40
l32 -26 -26 -7 c-31 -7 -35 -30 -9 -45 20 -12 7 -14 -37 -5 -20 4 -38 18 -51
39 -24 40 -25 42 -1 80 14 24 26 31 55 33 20 2 36 -1 36 -6z m1910 -17 c13
-14 21 -25 18 -25 -2 0 -15 11 -28 25 -13 14 -21 25 -18 25 2 0 15 -11 28 -25z
m-1140 5 c0 -5 -4 -10 -10 -10 -5 0 -10 5 -10 10 0 6 5 10 10 10 6 0 10 -4 10
-10z m384 -14 c-1 -9 3 -16 8 -16 5 0 8 -7 6 -16 -3 -14 -175 -114 -196 -114
-4 0 20 18 53 39 33 22 74 51 90 65 l30 27 -37 -15 c-47 -18 -48 -10 -6 26 35
29 54 31 52 4z m706 -18 c9 -6 22 -19 28 -28 7 -12 -9 -6 -46 16 -31 19 -61
39 -67 45 -11 11 56 -15 85 -33z m-4338 -10 c20 -24 38 -48 38 -55 0 -12 -45
-29 -90 -35 -17 -2 -26 -10 -28 -26 -2 -13 -9 -21 -15 -19 -14 4 -22 47 -9 47
5 0 12 14 16 31 7 35 35 99 44 99 3 0 23 -19 44 -42z m4447 -5 c13 -28 13 -28
-8 -9 -22 20 -27 36 -13 36 5 0 14 -12 21 -27z m-739 -12 c0 -11 -18 -42 -40
-69 -30 -39 -44 -49 -60 -45 -11 3 -20 7 -20 9 0 17 27 54 49 67 14 8 35 25
45 36 23 26 26 26 26 2z m578 -1 c44 -27 41 -35 -5 -12 -21 11 -45 22 -53 25
-11 4 -9 6 5 6 11 1 35 -8 53 -19z m822 -5 c-7 -9 -15 -13 -18 -10 -3 2 1 11
8 20 7 9 15 13 18 10 3 -2 -1 -11 -8 -20z m-5580 -1 c0 -15 -27 -26 -35 -14
-4 6 -4 14 -1 18 8 13 36 10 36 -4z m4870 -44 c6 -11 8 -20 6 -20 -3 0 -10 9
-16 20 -6 11 -8 20 -6 20 3 0 10 -9 16 -20z m1180 10 c0 -5 -2 -10 -4 -10 -3
0 -8 5 -11 10 -3 6 -1 10 4 10 6 0 11 -4 11 -10z m-4575 -20 c-3 -5 -10 -10
-16 -10 -5 0 -9 5 -9 10 0 6 7 10 16 10 8 0 12 -4 9 -10z m5685 -10 c0 -5 -4
-10 -10 -10 -5 0 -10 5 -10 10 0 6 5 10 10 10 6 0 10 -4 10 -10z m-2190 -31
c0 -6 -4 -7 -10 -4 -5 3 -10 11 -10 16 0 6 5 7 10 4 6 -3 10 -11 10 -16z
m-965 -6 c-24 -13 -27 -17 -13 -22 16 -6 16 -8 1 -40 -9 -19 -25 -36 -34 -38
-18 -5 -32 -53 -23 -77 3 -8 1 -17 -5 -21 -6 -3 -11 -23 -11 -43 0 -53 -10
-82 -27 -82 -12 0 -13 -8 -8 -40 5 -27 3 -40 -5 -40 -6 0 -10 -6 -9 -12 2 -7
-3 -40 -10 -73 -10 -45 -11 -67 -2 -90 14 -41 14 -46 -4 -39 -16 7 -19 -6 -9
-43 4 -16 14 -23 31 -23 16 0 27 -7 30 -20 3 -12 14 -20 26 -20 l20 0 -21 -22
c-13 -15 -20 -33 -18 -50 2 -15 -1 -25 -5 -22 -14 8 -49 -15 -49 -32 0 -11 -9
-15 -33 -13 -45 4 -59 -7 -52 -41 5 -22 2 -29 -12 -32 -12 -2 -18 -12 -18 -33
0 -22 -5 -31 -20 -33 -11 -2 -27 -10 -35 -17 -19 -16 -80 -8 -80 11 0 8 -4 14
-10 14 -14 0 -13 -13 2 -28 9 -9 9 -15 0 -24 -9 -9 -12 -9 -12 0 0 7 -9 12
-21 12 -12 0 -23 8 -26 20 -7 25 -15 25 -44 1 -21 -17 -24 -17 -35 -3 -11 15
-14 15 -31 -1 -18 -16 -20 -16 -41 3 -12 11 -25 20 -29 20 -15 1 -103 133
-103 154 0 12 -9 35 -19 52 -10 17 -22 53 -25 80 -4 27 -9 63 -12 79 -4 17 -3
27 1 23 8 -8 55 44 55 61 0 6 6 11 13 11 17 1 65 45 77 72 6 13 14 30 19 38 4
8 16 31 26 50 10 19 43 60 72 89 29 30 53 59 53 63 0 4 6 8 14 8 8 0 17 7 20
16 3 8 2 13 -3 10 -5 -3 -12 1 -15 10 -5 13 -1 15 20 10 16 -4 23 -3 20 3 -4
6 3 15 14 21 29 16 171 60 192 60 9 0 47 16 84 35 37 19 74 35 83 35 9 0 25 7
35 15 11 8 27 15 35 15 9 -1 3 -8 -14 -17z m-2275 3 c0 -3 -4 -8 -10 -11 -5
-3 -10 -1 -10 4 0 6 5 11 10 11 6 0 10 -2 10 -4z m-890 -156 c0 -5 -9 -10 -21
-10 -11 0 -17 5 -14 10 3 6 13 10 21 10 8 0 14 -4 14 -10z m2230 -19 c49 -13
64 -21 62 -33 -1 -9 2 -19 7 -22 5 -4 5 -20 -2 -41 -7 -25 -7 -42 0 -58 16
-34 5 -74 -26 -93 -14 -9 -43 -35 -63 -56 -30 -33 -40 -38 -55 -30 -14 8 -28
3 -66 -24 -27 -20 -50 -34 -52 -32 -1 2 -17 28 -35 58 -19 30 -48 74 -66 96
-31 38 -32 44 -23 79 6 21 9 54 6 74 -2 22 2 47 11 63 15 26 20 27 106 31 50
1 100 3 111 4 11 1 49 -6 85 -16z m1339 -643 c31 -69 41 -103 35 -120 -4 -12
-35 -61 -69 -108 -35 -47 -92 -134 -128 -195 -37 -60 -80 -126 -97 -145 -17
-19 -29 -29 -25 -22 3 6 1 12 -4 12 -15 0 -14 22 3 56 8 16 17 58 20 92 4 40
15 79 30 105 13 23 34 76 46 117 12 41 26 79 31 85 5 5 9 17 9 26 0 10 11 31
25 47 14 17 25 35 25 42 0 6 4 9 10 5 13 -8 50 72 43 93 -16 45 9 -3 46 -90z
m701 70 c0 -4 -9 -8 -20 -8 -11 0 -20 4 -20 9 0 6 9 9 20 8 11 -1 20 -5 20 -9z
m-1229 -157 c-7 -13 -17 -18 -27 -14 -14 5 -13 9 7 24 28 21 35 18 20 -10z
m-41 -37 c0 -8 -4 -14 -9 -14 -11 0 -22 26 -14 34 9 9 23 -3 23 -20z m610
-153 c0 -5 -7 -14 -16 -22 -13 -10 -17 -10 -25 2 -14 23 -11 29 16 29 14 0 25
-4 25 -9z m506 -222 c38 -142 39 -169 11 -200 -24 -26 -150 -69 -164 -55 -4 3
5 19 20 34 14 15 35 47 46 72 21 48 51 181 51 226 0 43 9 23 36 -77z m-178
-19 c24 -36 30 -84 10 -77 -8 2 -12 15 -10 30 3 24 -2 29 -25 26 -3 0 -10 6
-15 14 -4 9 -23 19 -41 23 l-32 8 35 7 c48 9 52 7 78 -31z m-88 -37 c0 -13 -3
-13 -15 -3 -8 7 -12 16 -9 21 8 13 24 1 24 -18z m30 -53 c6 -11 7 -20 2 -20
-10 0 -32 21 -32 32 0 16 19 8 30 -12z m25 10 c3 -5 1 -10 -4 -10 -6 0 -11 5
-11 10 0 6 2 10 4 10 3 0 8 -4 11 -10z m-56 -74 c-9 -8 -10 -7 -5 7 3 10 7 24
7 30 1 7 3 4 6 -7 3 -10 -1 -23 -8 -30z m9 -38 c26 -27 49 -55 51 -61 5 -16
-85 71 -105 102 -23 34 0 17 54 -41z m392 42 c0 -20 -9 -24 -45 -20 -29 3 -32
10 -11 26 29 21 56 18 56 -6z m-456 -96 c5 -14 4 -15 -9 -4 -17 14 -19 20 -6
20 5 0 12 -7 15 -16z m-3093 -271 c14 -17 11 -18 -36 -16 -83 2 -85 3 -85 13
0 6 20 9 45 8 25 0 48 2 52 5 8 9 6 10 24 -10z m-67 -52 c4 -5 -3 -7 -14 -4
-23 6 -26 13 -6 13 8 0 17 -4 20 -9z m-69 -91 c-3 -5 -2 -10 3 -10 6 0 12 -7
16 -15 4 -12 -2 -15 -27 -14 -18 1 -24 3 -14 6 10 3 16 11 13 18 -2 7 -2 16 1
19 10 10 15 7 8 -4z m83 -77 c-10 -2 -26 -2 -35 0 -10 3 -2 5 17 5 19 0 27 -2
18 -5z"/>
<path d="M2690 4150 c0 -5 7 -10 16 -10 8 0 12 5 9 10 -3 6 -10 10 -16 10 -5
0 -9 -4 -9 -10z"/>
<path d="M2723 4128 c-13 -6 -23 -14 -23 -19 0 -10 43 2 58 18 17 17 -2 17
-35 1z"/>
<path d="M3290 4136 c0 -2 7 -7 16 -10 8 -3 12 -2 9 4 -6 10 -25 14 -25 6z"/>
<path d="M2736 4100 c-35 -11 -86 -58 -86 -79 1 -13 2 -13 11 2 12 21 85 68
102 66 26 -3 47 2 47 11 0 12 -34 12 -74 0z"/>
<path d="M3235 4063 c4 -10 11 -31 14 -48 7 -29 8 -29 19 -9 6 12 9 24 6 27
-3 3 3 3 15 0 17 -4 21 -1 21 18 0 17 -3 20 -9 11 -7 -11 -9 -11 -14 2 -4 9
-18 16 -33 16 -21 0 -25 -3 -19 -17z"/>
<path d="M2630 4049 c0 -5 5 -7 10 -4 6 3 10 8 10 11 0 2 -4 4 -10 4 -5 0 -10
-5 -10 -11z"/>
<path d="M2734 4047 c-6 -7 -20 -20 -30 -29 -39 -34 -44 -46 -34 -73 13 -34
25 -32 52 9 28 43 75 66 136 66 l47 1 -35 19 c-39 22 -119 26 -136 7z"/>
<path d="M2783 3988 c-13 -6 -25 -20 -29 -32 -3 -12 -12 -28 -20 -36 -8 -10
-11 -25 -6 -40 18 -62 35 -70 110 -54 36 7 38 11 17 38 -14 18 -13 22 14 46
32 30 61 35 61 11 0 -11 4 -9 16 7 17 24 10 37 -33 60 -27 15 -100 14 -130 0z
m77 -63 c-25 -27 -56 -33 -63 -12 -7 21 4 39 18 27 16 -14 45 -2 45 18 0 12 3
13 12 4 9 -9 6 -17 -12 -37z"/>
<path d="M3250 3945 c0 -11 4 -26 9 -33 7 -11 9 -11 14 1 3 8 -1 23 -8 34 -14
17 -14 17 -15 -2z"/>
<path d="M2638 3839 c-21 -12 -24 -49 -6 -67 18 -18 27 -14 21 9 -5 19 -4 20
16 7 18 -11 23 -11 30 1 23 36 -23 74 -61 50z"/>
<path d="M2802 3763 c-20 -8 -3 -23 28 -23 16 0 30 -7 34 -16 9 -23 9 -23 -28
-17 -24 4 -40 1 -50 -10 -22 -22 -20 -37 5 -37 13 0 18 -4 13 -12 -6 -10 -5
-10 7 -1 11 9 18 8 32 -2 19 -14 57 -9 57 7 0 5 9 6 20 3 11 -4 20 -2 20 4 0
6 -10 13 -23 16 -19 5 -23 13 -23 41 0 20 -6 39 -14 45 -16 9 -57 11 -78 2z"/>
<path d="M2765 3640 c3 -5 8 -10 11 -10 2 0 4 5 4 10 0 6 -5 10 -11 10 -5 0
-7 -4 -4 -10z"/>
<path d="M2859 3607 c-40 -20 -36 -50 12 -88 l42 -33 16 22 c55 73 52 71 34
25 -9 -24 -20 -43 -25 -43 -4 0 -8 -4 -8 -9 0 -14 62 -19 88 -8 28 13 26 49
-3 57 -14 3 -20 13 -20 32 1 15 4 30 8 34 17 17 3 23 -56 23 -35 0 -74 -6 -88
-12z"/>
<path d="M1390 4030 c0 -5 7 -10 15 -10 8 0 15 5 15 10 0 6 -7 10 -15 10 -8 0
-15 -4 -15 -10z"/>
<path d="M1443 4003 c-27 -5 -29 -16 -7 -34 13 -10 17 -10 25 2 8 12 13 41 7
38 -2 -1 -13 -4 -25 -6z"/>
<path d="M1494 3842 c-29 -16 -30 -19 -22 -52 10 -36 28 -64 28 -42 0 16 27
15 33 -1 3 -7 -1 -21 -9 -32 -20 -28 -18 -55 5 -55 26 0 36 17 21 35 -15 18
-6 45 15 45 21 0 19 10 -7 37 -12 13 -17 23 -11 23 14 0 2 52 -13 56 -5 2 -23
-5 -40 -14z"/>
<path d="M1931 3853 c-1 -7 -8 -10 -16 -7 -25 10 -16 -10 10 -23 27 -12 28 -9
15 22 -5 11 -9 15 -9 8z"/>
<path d="M1577 3804 c-9 -10 42 -56 54 -49 15 10 10 32 -8 39 -10 3 -23 8 -29
11 -5 3 -13 2 -17 -1z"/>
<path d="M1838 3763 c7 -3 16 -2 19 1 4 3 -2 6 -13 5 -11 0 -14 -3 -6 -6z"/>
<path d="M1877 3723 c-13 -12 -7 -22 8 -16 9 3 22 -2 30 -13 8 -11 14 -14 14
-9 0 14 -24 45 -36 45 -5 0 -13 -3 -16 -7z"/>
<path d="M1530 3639 c0 -5 5 -7 10 -4 6 3 10 8 10 11 0 2 -4 4 -10 4 -5 0 -10
-5 -10 -11z"/>
<path d="M1350 3621 c0 -15 16 -22 34 -15 25 9 19 24 -9 24 -14 0 -25 -4 -25
-9z"/>
<path d="M1565 3600 c3 -5 8 -10 11 -10 2 0 4 5 4 10 0 6 -5 10 -11 10 -5 0
-7 -4 -4 -10z"/>
<path d="M378 3773 c7 -3 16 -2 19 1 4 3 -2 6 -13 5 -11 0 -14 -3 -6 -6z"/>
<path d="M366 3238 c-9 -40 -27 -95 -40 -121 -26 -53 -24 -87 5 -87 28 0 44
37 28 66 -7 13 -10 25 -8 27 2 1 20 14 39 28 19 14 43 28 53 32 17 6 24 27 8
27 -4 0 -19 23 -32 50 -13 28 -26 50 -30 50 -3 0 -13 -33 -23 -72z"/>
<path d="M490 3295 c0 -27 35 -82 49 -77 8 3 18 -3 23 -12 11 -20 28 -21 28
-1 0 9 9 15 22 15 17 0 19 3 10 12 -7 7 -29 11 -50 10 -35 -3 -39 -1 -52 32
-14 37 -30 48 -30 21z"/>
<path d="M470 3230 c0 -5 5 -10 10 -10 6 0 10 5 10 10 0 6 -4 10 -10 10 -5 0
-10 -4 -10 -10z"/>
<path d="M530 3170 c0 -5 5 -10 10 -10 6 0 10 5 10 10 0 6 -4 10 -10 10 -5 0
-10 -4 -10 -10z"/>
<path d="M416 3136 c9 -24 34 -28 34 -6 0 13 -7 20 -20 20 -13 0 -17 -5 -14
-14z"/>
<path d="M450 3070 c0 -5 9 -10 20 -10 11 0 20 5 20 10 0 6 -9 10 -20 10 -11
0 -20 -4 -20 -10z"/>
<path d="M1130 3137 c0 -8 6 -20 14 -26 12 -10 13 -8 9 9 -7 25 -23 37 -23 17z"/>
<path d="M5585 2930 c3 -5 11 -10 16 -10 6 0 7 5 4 10 -3 6 -11 10 -16 10 -6
0 -7 -4 -4 -10z"/>
<path d="M5075 2780 c-3 -5 -1 -10 4 -10 6 0 11 5 11 10 0 6 -2 10 -4 10 -3 0
-8 -4 -11 -10z"/>
<path d="M5040 2759 c0 -5 5 -7 10 -4 6 3 10 8 10 11 0 2 -4 4 -10 4 -5 0 -10
-5 -10 -11z"/>
<path d="M5455 2700 c3 -5 8 -10 11 -10 2 0 4 5 4 10 0 6 -5 10 -11 10 -5 0
-7 -4 -4 -10z"/>
<path d="M4550 2672 c0 -15 -2 -15 -10 -2 -9 13 -10 13 -10 0 0 -8 4 -21 9
-29 8 -12 12 -12 25 -2 20 17 20 37 1 45 -10 3 -15 -1 -15 -12z"/>
<path d="M4875 2572 c-14 -3 -8 -8 24 -19 24 -8 45 -13 47 -11 8 9 -52 34 -71
30z"/>
<path d="M4860 2350 c0 -5 7 -10 15 -10 8 0 15 5 15 10 0 6 -7 10 -15 10 -8 0
-15 -4 -15 -10z"/>
<path d="M2910 2630 c0 -5 10 -10 23 -10 18 0 19 2 7 10 -19 13 -30 13 -30 0z"/>
<path d="M4250 2650 c-13 -8 -13 -10 2 -10 9 0 20 5 23 10 8 13 -5 13 -25 0z"/>
<path d="M4057 2615 c-13 -9 -15 -15 -7 -20 14 -8 34 9 29 23 -3 7 -11 6 -22
-3z"/>
<path d="M2084 2284 c-18 -14 -18 -14 6 -3 31 14 36 19 24 19 -6 0 -19 -7 -30
-16z"/>
<path d="M4246 1941 c-4 -6 -3 -19 3 -28 9 -17 10 -17 17 0 8 21 -10 45 -20
28z"/>
<path d="M4192 1488 c5 -15 48 -24 48 -10 0 10 -23 22 -42 22 -5 0 -8 -6 -6
-12z"/>
<path d="M946 4931 c17 -16 92 -20 105 -5 10 12 1 14 -52 14 -36 0 -59 -4 -53
-9z"/>
<path d="M1150 4930 c0 -5 7 -10 16 -10 8 0 21 -15 29 -33 12 -30 18 -33 60
-35 26 -1 53 -6 60 -12 9 -8 14 -6 19 5 3 9 19 21 35 26 32 11 44 30 35 54 -7
18 -24 20 -24 3 0 -9 -3 -9 -12 0 -16 16 -31 15 -25 -2 3 -8 -1 -17 -9 -20
-25 -9 -72 -7 -79 4 -3 6 -17 10 -30 10 -13 0 -27 5 -30 10 -3 6 -15 10 -26
10 -10 0 -19 -4 -19 -10z"/>
<path d="M1610 4921 c0 -26 40 -35 56 -13 11 14 9 18 -9 24 -38 11 -47 9 -47
-11z"/>
<path d="M4048 4924 c24 -17 39 -14 27 5 -3 6 -16 11 -28 11 l-21 0 22 -16z"/>
<path d="M4930 4929 c0 -5 -7 -9 -15 -9 -18 0 -18 -5 -5 -31 12 -22 40 -26 40
-5 0 8 12 23 27 34 l27 20 -37 0 c-20 0 -37 -4 -37 -9z"/>
<path d="M5413 4908 c3 -39 20 -46 34 -15 9 19 8 26 -8 35 -27 17 -29 16 -26
-20z"/>
<path d="M5676 4925 c4 -8 12 -15 20 -15 8 0 14 7 14 15 0 8 -9 15 -20 15 -13
0 -18 -5 -14 -15z"/>
<path d="M5730 4931 c0 -19 18 -21 51 -6 l34 14 -42 1 c-24 0 -43 -4 -43 -9z"/>
<path d="M6052 4928 c-17 -17 -15 -32 6 -51 23 -21 36 -21 57 -1 12 12 13 19
4 30 -6 7 -8 18 -4 24 9 14 -48 13 -63 -2z"/>
<path d="M6145 4930 c-3 -5 -2 -10 4 -10 5 0 13 5 16 10 3 6 2 10 -4 10 -5 0
-13 -4 -16 -10z"/>
<path d="M6188 4933 c7 -3 16 -2 19 1 4 3 -2 6 -13 5 -11 0 -14 -3 -6 -6z"/>
<path d="M6458 4923 c12 -8 22 -24 22 -34 0 -28 19 -23 26 7 8 30 -7 44 -46
43 l-25 0 23 -16z"/>
<path d="M6570 4930 c0 -5 10 -12 23 -15 22 -6 23 -11 21 -81 -1 -41 2 -74 7
-74 10 0 13 21 10 57 -1 12 3 24 9 28 14 8 13 35 -2 68 -10 20 -20 27 -40 27
-16 0 -28 -4 -28 -10z"/>
<path d="M5579 4916 c0 -1 -2 -11 -3 -22 -2 -16 6 -24 31 -33 18 -7 37 -10 42
-7 11 7 61 -18 73 -36 7 -10 11 -10 21 4 9 11 21 15 35 11 18 -4 22 -13 22
-45 0 -23 4 -37 10 -33 6 3 10 19 10 36 0 24 4 29 24 29 16 0 26 7 30 23 8 32
7 39 -4 32 -6 -4 -17 -2 -25 5 -10 8 -16 7 -23 -6 -6 -10 -12 -13 -16 -6 -7
12 -46 4 -46 -9 0 -5 -5 -9 -11 -9 -5 0 -8 4 -4 9 3 5 -5 13 -17 17 -13 4 -26
12 -30 18 -5 7 -12 5 -21 -8 -15 -20 -37 -15 -37 8 0 10 -53 29 -61 22z m146
-56 c3 -5 -1 -10 -9 -10 -8 0 -18 5 -21 10 -3 6 1 10 9 10 8 0 18 -4 21 -10z"/>
<path d="M6540 4888 c0 -36 4 -35 14 5 4 16 2 27 -4 27 -5 0 -10 -14 -10 -32z"/>
<path d="M650 4902 c0 -14 11 -21 26 -15 8 3 11 9 8 14 -7 11 -34 12 -34 1z"/>
<path d="M800 4900 c0 -13 42 -20 59 -10 18 11 17 11 -26 15 -18 1 -33 -1 -33
-5z"/>
<path d="M7610 4900 c0 -5 7 -7 15 -4 8 4 15 8 15 10 0 2 -7 4 -15 4 -8 0 -15
-4 -15 -10z"/>
<path d="M5150 4884 c0 -9 -9 -27 -20 -41 -23 -30 -25 -43 -6 -43 7 0 16 10
19 22 5 18 8 19 21 9 9 -8 13 -17 10 -22 -3 -5 0 -9 7 -9 7 0 9 8 4 23 -6 20
-12 48 -14 70 -2 14 -21 7 -21 -9z"/>
<path d="M6334 4889 c-3 -6 -1 -16 5 -22 8 -8 11 -5 11 11 0 24 -5 28 -16 11z"/>
<path d="M606 4875 c-11 -8 -15 -15 -9 -15 6 0 16 7 23 15 16 19 11 19 -14 0z"/>
<path d="M7345 4871 c-3 -6 2 -14 11 -19 12 -7 19 -27 22 -66 2 -31 8 -56 13
-56 5 0 9 7 9 15 0 8 5 15 10 15 6 0 10 15 10 33 0 23 -8 41 -28 60 -30 29
-38 32 -47 18z"/>
<path d="M906 4857 c4 -11 -3 -17 -25 -22 -17 -4 -31 -11 -31 -15 0 -13 38
-32 50 -25 5 3 5 -8 -1 -27 -5 -18 -9 -45 -9 -60 0 -17 -8 -31 -20 -38 -25
-14 -26 -26 0 -33 31 -8 57 43 38 77 -7 12 -5 24 6 41 10 15 14 34 10 49 -4
19 -1 26 15 31 11 3 26 3 32 -1 7 -4 45 -8 85 -9 67 -2 74 -1 74 17 0 15 -5
18 -21 13 -15 -5 -19 -4 -15 4 4 6 1 11 -8 11 -8 0 -18 -5 -22 -11 -6 -10 -82
-6 -142 8 -17 4 -21 2 -16 -10z"/>
<path d="M6198 4849 c-19 -20 -25 -65 -9 -54 9 5 41 62 41 72 0 8 -17 0 -32
-18z"/>
<path d="M6500 4831 c0 -5 5 -11 10 -13 10 -3 6 -28 -16 -120 -5 -24 -3 -28
15 -28 16 0 21 5 20 18 -3 21 10 62 20 62 4 0 12 -5 19 -12 9 -9 8 -16 -5 -30
-18 -20 -11 -23 18 -8 20 11 28 70 9 70 -5 0 -10 8 -10 18 -1 16 -1 16 -14 0
-19 -25 -24 -23 -32 17 -3 20 -12 35 -20 35 -8 0 -14 -4 -14 -9z"/>
<path d="M5434 4809 c-2 -4 3 -26 12 -48 11 -28 13 -45 6 -54 -14 -18 -24
-125 -11 -132 28 -18 -8 -37 -65 -35 -24 0 -28 -3 -23 -20 4 -17 2 -20 -13
-15 -11 3 -20 0 -24 -10 -4 -10 1 -15 15 -15 16 0 20 -5 16 -20 -3 -11 -1 -23
4 -26 6 -3 7 -14 4 -25 -4 -13 -1 -21 12 -25 39 -13 63 -28 63 -41 0 -17 19
-17 22 0 0 6 2 17 2 22 4 30 17 34 54 13 20 -12 39 -23 41 -25 3 -2 -5 -13
-17 -26 -19 -18 -22 -19 -22 -4 0 23 -4 22 -35 -8 -24 -24 -24 -27 -9 -50 17
-26 12 -45 -12 -45 -9 0 -14 10 -14 29 0 16 -3 36 -6 45 -9 24 -32 19 -36 -6
-4 -30 -34 -35 -43 -8 -4 12 -2 27 4 33 17 17 14 50 -4 44 -8 -4 -17 -1 -21 5
-4 7 -9 6 -15 -3 -13 -21 -11 -32 6 -26 8 4 17 2 20 -3 4 -6 -1 -10 -9 -10
-27 0 -24 -55 5 -86 12 -13 17 -27 13 -39 -6 -14 -3 -16 15 -10 15 4 23 2 27
-10 4 -8 31 -27 60 -41 46 -22 54 -29 54 -54 0 -33 36 -49 55 -23 17 22 58 8
50 -17 -8 -25 11 -60 32 -60 11 0 14 6 9 23 -4 12 -9 41 -11 65 -3 38 -1 42
18 41 12 0 31 -4 42 -8 11 -5 25 -4 32 1 15 12 33 2 33 -18 0 -8 3 -14 8 -14
4 0 7 22 7 50 0 37 -5 53 -19 63 -18 13 -18 15 -2 24 28 15 32 77 7 102 -11
11 -27 18 -36 15 -24 -10 -18 33 10 71 14 18 24 38 23 45 -4 17 52 32 68 19 8
-7 13 -6 17 3 2 7 8 10 12 6 10 -10 -44 -58 -66 -58 -11 0 -19 -6 -19 -13 0
-8 15 -13 40 -13 35 -1 40 1 40 21 0 23 26 53 37 42 3 -4 14 5 25 18 21 28 18
56 -12 87 -16 17 -16 24 -5 69 7 27 10 49 6 49 -10 0 -41 -39 -41 -51 0 -7
-11 -9 -25 -7 -19 4 -25 1 -25 -13 0 -32 -27 -21 -34 13 -6 31 3 55 11 31 9
-24 24 -13 21 15 -2 19 -9 27 -23 28 -11 1 -28 2 -37 3 -12 1 -18 9 -18 24 0
19 -5 24 -28 24 -25 0 -28 -4 -28 -32 0 -27 3 -31 19 -27 17 4 19 1 13 -21 -4
-18 -1 -36 11 -54 14 -21 14 -25 3 -21 -8 3 -14 12 -12 19 2 7 -8 1 -22 -14
-29 -32 -41 -34 -55 -9 -8 14 -11 14 -12 2 0 -8 -4 -4 -8 10 -4 15 -15 26 -29
28 -28 4 -29 22 -1 29 22 6 22 6 -2 24 -19 14 -25 15 -34 4 -5 -8 -22 -17 -37
-21 -26 -6 -28 -4 -28 25 0 17 4 31 9 31 12 0 24 37 16 50 -4 6 -13 5 -25 -2
-23 -14 -35 -6 -26 18 5 12 14 15 35 11 21 -4 34 -1 46 13 20 22 6 27 -26 10
-10 -6 -19 -7 -19 -2 0 11 -59 12 -66 1z m66 -199 c0 -5 -2 -10 -4 -10 -3 0
-8 5 -11 10 -3 6 -1 10 4 10 6 0 11 -4 11 -10z m68 -69 c3 -8 -1 -12 -9 -9 -7
2 -15 10 -17 17 -3 8 1 12 9 9 7 -2 15 -10 17 -17z m58 7 c4 -6 -4 -19 -19
-30 -15 -11 -27 -27 -27 -36 0 -11 -3 -13 -11 -5 -7 7 -6 21 5 47 15 36 38 47
52 24z m95 -31 c-1 -12 -15 -9 -19 4 -3 6 1 10 8 8 6 -3 11 -8 11 -12z m97 -5
c2 -7 -3 -12 -12 -12 -9 0 -16 7 -16 16 0 17 22 14 28 -4z m-158 -72 c0 -12
-28 -20 -45 -14 -28 11 -17 31 15 26 17 -2 30 -8 30 -12z m-136 -6 c10 -25 7
-34 -9 -34 -8 0 -15 5 -15 11 0 5 -4 7 -10 4 -5 -3 -15 -3 -22 1 -7 5 -5 11 7
21 25 17 41 17 49 -3z m106 -44 c0 -5 -5 -10 -11 -10 -5 0 -7 5 -4 10 3 6 8
10 11 10 2 0 4 -4 4 -10z m-40 -16 c0 -8 -4 -12 -10 -9 -5 3 -10 10 -10 16 0
5 5 9 10 9 6 0 10 -7 10 -16z m17 -50 c-9 -9 -28 6 -21 18 4 6 10 6 17 -1 6
-6 8 -13 4 -17z m123 -55 c0 -6 -4 -7 -10 -4 -5 3 -10 11 -10 16 0 6 5 7 10 4
6 -3 10 -11 10 -16z m-114 -68 c-4 -6 -17 -11 -28 -11 -21 0 -21 1 -3 20 19
21 44 13 31 -9z m58 1 c6 -9 -29 -42 -44 -42 -17 0 -11 38 8 43 28 8 31 7 36
-1z m-114 -32 c0 -5 -4 -10 -10 -10 -5 0 -10 5 -10 10 0 6 5 10 10 10 6 0 10
-4 10 -10z m0 -50 c0 -5 -4 -10 -10 -10 -5 0 -10 5 -10 10 0 6 5 10 10 10 6 0
10 -4 10 -10z"/>
<path d="M6065 4810 c3 -5 11 -10 16 -10 6 0 7 5 4 10 -3 6 -11 10 -16 10 -6
0 -7 -4 -4 -10z"/>
<path d="M7052 4804 c-12 -8 -22 -21 -22 -29 0 -7 -15 -25 -32 -39 l-32 -25
21 -29 c18 -24 21 -40 18 -102 -2 -46 -8 -76 -17 -81 -9 -6 -7 -9 9 -9 16 0
21 -4 16 -16 -4 -11 -1 -15 13 -12 15 2 18 -2 16 -24 -3 -27 -2 -28 41 -28 35
0 60 9 113 41 38 23 77 48 86 56 12 11 28 13 52 9 34 -6 34 -6 23 18 -7 14
-23 30 -36 36 -29 13 -37 8 -16 -10 14 -12 13 -15 -12 -26 -15 -8 -36 -19 -45
-26 -13 -9 -20 -10 -29 -1 -18 18 2 86 28 98 26 11 37 44 21 63 -6 7 -13 25
-14 39 -4 32 -56 77 -113 98 -55 19 -61 19 -89 -1z"/>
<path d="M5670 4796 c0 -19 31 -30 41 -14 4 6 5 16 3 20 -9 14 -44 9 -44 -6z"/>
<path d="M1117 4793 c-13 -12 -7 -33 9 -33 11 0 15 -6 11 -19 -3 -14 2 -21 16
-25 26 -7 33 0 19 17 -9 10 -9 16 0 25 8 8 8 15 -2 27 -13 15 -42 20 -53 8z"/>
<path d="M6284 4786 c-3 -8 -4 -29 -2 -47 4 -40 25 -48 61 -24 l25 16 -24 24
c-13 13 -24 29 -24 35 0 15 -30 12 -36 -4z"/>
<path d="M5367 4770 c-10 -38 2 -67 29 -73 29 -5 32 8 4 23 -11 6 -18 15 -15
20 3 4 1 18 -3 31 l-9 23 -6 -24z"/>
<path d="M5275 4760 c3 -5 8 -10 11 -10 2 0 4 5 4 10 0 6 -5 10 -11 10 -5 0
-7 -4 -4 -10z"/>
<path d="M5576 4743 c10 -40 15 -47 25 -32 17 27 10 59 -11 59 -17 0 -19 -4
-14 -27z"/>
<path d="M7440 4751 c0 -4 14 -15 30 -24 29 -17 38 -14 22 9 -8 13 -52 25 -52
15z"/>
<path d="M859 4724 c-11 -30 -3 -46 11 -24 10 16 13 50 5 50 -3 0 -10 -12 -16
-26z"/>
<path d="M796 4732 c-3 -6 -1 -14 5 -17 15 -10 25 3 12 16 -7 7 -13 7 -17 1z"/>
<path d="M1030 4729 c0 -5 5 -7 10 -4 6 3 10 8 10 11 0 2 -4 4 -10 4 -5 0 -10
-5 -10 -11z"/>
<path d="M5774 4729 c-3 -6 -1 -16 5 -22 8 -8 11 -5 11 11 0 24 -5 28 -16 11z"/>
<path d="M7515 4731 c-3 -5 -1 -12 5 -16 5 -3 10 1 10 9 0 18 -6 21 -15 7z"/>
<path d="M1069 4713 c-8 -9 -13 -24 -11 -35 4 -20 -14 -25 -21 -5 -4 9 -7 9
-14 -1 -7 -9 -17 -4 -40 18 -21 21 -34 27 -38 19 -4 -6 -2 -15 5 -19 7 -4 9
-13 6 -19 -4 -6 0 -11 9 -11 12 0 14 -4 5 -19 -15 -30 0 -112 25 -135 35 -33
40 -62 13 -69 l-22 -6 28 -30 c38 -39 61 -44 76 -16 13 25 7 45 -15 45 -15 0
-40 56 -37 84 2 15 -1 16 -12 7 -18 -15 -33 4 -17 23 8 10 6 19 -9 36 -25 29
-25 40 0 40 11 0 20 5 20 11 0 5 8 9 18 7 46 -8 97 53 69 81 -15 15 -22 14
-38 -6z"/>
<path d="M5277 4723 c-10 -10 -8 -73 2 -73 12 0 34 57 26 69 -7 12 -19 14 -28
4z"/>
<path d="M1210 4705 c0 -10 -10 -15 -34 -15 -38 0 -49 -10 -40 -34 8 -22 21
-20 27 5 5 17 9 19 26 10 26 -15 31 -14 25 3 -3 9 3 17 15 21 27 8 27 25 1 25
-11 0 -20 -7 -20 -15z"/>
<path d="M7348 4664 c3 -39 8 -54 16 -51 9 4 12 -3 9 -21 -3 -26 -3 -26 8 -6
9 17 7 29 -6 58 -10 20 -15 45 -12 56 3 11 0 20 -6 20 -8 0 -11 -18 -9 -56z"/>
<path d="M6240 4699 c0 -5 5 -7 10 -4 6 3 10 8 10 11 0 2 -4 4 -10 4 -5 0 -10
-5 -10 -11z"/>
<path d="M7484 4685 c-9 -23 1 -88 14 -93 6 -2 12 4 12 13 0 9 6 28 14 43 13
26 13 28 -11 39 -19 9 -25 9 -29 -2z"/>
<path d="M5953 4683 c-15 -6 -17 -51 -3 -73 5 -8 10 -12 12 -10 41 64 37 102
-9 83z"/>
<path d="M6623 4683 c-17 -6 -16 -28 2 -43 13 -11 15 -8 15 19 0 17 -1 31 -2
30 -2 0 -9 -3 -15 -6z"/>
<path d="M5200 4671 c0 -6 5 -13 10 -16 6 -3 10 1 10 9 0 9 -4 16 -10 16 -5 0
-10 -4 -10 -9z"/>
<path d="M6310 4656 c0 -7 8 -20 17 -27 15 -12 16 -12 10 4 -4 10 -7 23 -7 28
0 5 -4 9 -10 9 -5 0 -10 -6 -10 -14z"/>
<path d="M1110 4634 c0 -8 5 -12 10 -9 6 3 10 10 10 16 0 5 -4 9 -10 9 -5 0
-10 -7 -10 -16z"/>
<path d="M1220 4639 c0 -5 -5 -7 -12 -3 -7 4 -8 3 -4 -5 6 -9 11 -9 22 0 17
14 18 19 4 19 -5 0 -10 -5 -10 -11z"/>
<path d="M5355 4640 c-3 -5 -2 -10 4 -10 5 0 13 5 16 10 3 6 2 10 -4 10 -5 0
-13 -4 -16 -10z"/>
<path d="M6141 4641 c-11 -7 -9 -11 9 -21 27 -14 39 -5 19 15 -9 9 -19 11 -28
6z"/>
<path d="M5272 4618 c-6 -6 -29 -11 -52 -11 -32 0 -40 -3 -38 -16 3 -10 12
-15 27 -13 13 1 33 -6 44 -15 19 -17 19 -17 12 5 -5 17 -2 27 12 37 10 7 15
16 12 19 -3 3 -10 1 -17 -6z"/>
<path d="M914 4612 c-20 -13 -22 -48 -4 -60 14 -9 20 -8 24 4 14 37 2 71 -20
56z"/>
<path d="M1082 4596 c-6 -14 -18 -26 -27 -26 -17 0 -20 -16 -5 -25 6 -3 10
-15 10 -25 0 -11 9 -24 20 -30 11 -6 20 -18 20 -27 0 -14 2 -14 20 2 14 13 23
15 32 7 10 -8 20 -6 38 8 29 22 22 33 -22 33 -32 0 -75 31 -58 42 6 4 10 12 9
18 0 9 -2 9 -5 0 -3 -7 -12 -9 -20 -6 -11 4 -12 9 -3 19 6 7 9 18 7 25 -2 6
-9 0 -16 -15z"/>
<path d="M5375 4570 c-3 -5 -1 -10 4 -10 6 0 11 5 11 10 0 6 -2 10 -4 10 -3 0
-8 -4 -11 -10z"/>
<path d="M5980 4570 c0 -5 7 -10 15 -10 8 0 15 -7 15 -16 0 -11 -6 -14 -22 -8
-20 6 -21 5 -10 -9 14 -17 7 -41 -9 -32 -20 13 -8 -13 17 -34 25 -22 54 -22
54 0 0 6 6 9 13 6 8 -3 20 3 28 14 7 10 21 19 31 19 21 0 23 27 4 53 -11 14
-16 15 -22 5 -5 -7 -7 -23 -6 -34 3 -24 -25 -37 -51 -22 -13 7 -14 14 -6 35
11 30 12 28 -23 37 -17 4 -28 2 -28 -4z"/>
<path d="M6601 4511 c-30 -4 -56 -12 -59 -19 -2 -7 -12 -12 -22 -12 -10 0 -20
-9 -23 -20 -3 -12 -14 -20 -27 -20 -19 0 -20 -2 -10 -15 7 -8 16 -13 19 -10 4
2 8 -1 8 -8 0 -7 3 -22 7 -35 4 -12 4 -21 -1 -20 -5 2 -24 -11 -41 -29 -38
-37 -42 -70 -9 -75 24 -3 27 -19 30 -175 1 -42 6 -72 12 -72 27 3 36 -5 62
-57 l28 -56 3 33 c2 22 -2 35 -12 41 -9 5 -16 13 -16 17 0 14 31 22 44 12 19
-16 86 -25 86 -12 0 6 -7 14 -15 17 -8 4 -15 10 -15 14 0 10 59 32 69 25 4 -2
6 -25 6 -50 -2 -35 2 -48 17 -56 20 -11 24 -49 7 -81 -9 -17 -8 -24 2 -32 15
-12 14 -66 -1 -66 -14 0 -32 -39 -24 -51 4 -7 13 -3 25 10 11 12 24 21 29 21
6 0 10 7 10 15 0 8 5 15 10 15 6 0 10 -13 10 -29 0 -53 36 -49 42 4 2 20 8 29
18 28 13 -2 16 10 18 60 1 34 3 71 5 82 1 13 -4 20 -15 20 -9 0 -20 4 -24 8
-4 4 2 7 14 7 15 0 22 6 22 20 0 13 -7 20 -20 20 -11 0 -27 11 -36 25 -20 30
-11 49 16 33 29 -18 36 -1 9 22 -23 19 -23 21 -6 34 17 13 18 21 9 78 -5 35
-7 79 -5 99 3 20 1 39 -4 42 -14 9 -62 -39 -69 -68 -5 -19 -16 -27 -48 -35
-46 -11 -106 -40 -106 -50 0 -3 -6 -14 -13 -24 -13 -17 -15 -16 -36 17 -15 25
-22 53 -23 99 -2 76 6 105 33 113 10 4 19 12 19 19 0 7 24 18 56 25 51 12 55
15 49 34 -4 12 -9 34 -12 50 -6 29 -5 29 -102 18z m-53 -153 c-6 -18 -28 -21
-28 -4 0 9 7 16 16 16 9 0 14 -5 12 -12z m225 -192 c4 -10 0 -12 -14 -9 -22 6
-26 23 -5 23 8 0 16 -6 19 -14z m64 -8 c-3 -8 -6 -5 -6 6 -1 11 2 17 5 13 3
-3 4 -12 1 -19z m-29 -99 c-2 -6 -8 -10 -13 -10 -5 0 -11 4 -13 10 -2 6 4 11
13 11 9 0 15 -5 13 -11z m-18 -100 c0 -11 -4 -17 -10 -14 -5 3 -10 13 -10 21
0 8 5 14 10 14 6 0 10 -9 10 -21z m53 -41 c3 -21 4 -38 2 -38 -8 0 -35 64 -35
84 0 34 27 -3 33 -46z"/>
<path d="M7609 4504 c-12 -14 -11 -16 5 -13 11 2 21 10 24 17 5 17 -13 15 -29
-4z"/>
<path d="M940 4496 c0 -9 7 -16 16 -16 9 0 14 5 12 12 -6 18 -28 21 -28 4z"/>
<path d="M6125 4470 c-3 -11 -11 -20 -16 -20 -14 0 -11 -28 4 -33 13 -4 57 12
57 22 -1 46 -33 68 -45 31z"/>
<path d="M6898 4477 c-5 -10 -8 -28 -8 -39 0 -11 -10 -28 -22 -38 -13 -10 -20
-21 -16 -25 4 -4 19 5 33 19 14 14 30 26 35 26 6 0 10 5 10 10 0 6 -4 10 -9
10 -5 0 -11 12 -13 28 -2 22 -4 24 -10 9z"/>
<path d="M6336 4465 c-3 -8 -1 -17 4 -20 6 -4 10 -15 10 -26 0 -10 5 -19 11
-19 7 0 18 -8 25 -17 9 -14 16 -15 24 -7 8 8 9 14 1 18 -8 5 -8 13 -1 26 8 14
5 21 -13 32 -37 24 -55 28 -61 13z"/>
<path d="M5214 4456 c-4 -11 -1 -22 7 -27 31 -19 38 -6 14 25 -14 18 -15 18
-21 2z"/>
<path d="M5299 4428 c4 -42 4 -42 13 -15 10 28 5 57 -9 57 -5 0 -7 -19 -4 -42z"/>
<path d="M1185 4443 c-28 -7 -41 -21 -29 -33 6 -6 20 -1 39 15 30 24 28 27
-10 18z"/>
<path d="M6970 4439 c0 -5 5 -7 10 -4 6 3 10 8 10 11 0 2 -4 4 -10 4 -5 0 -10
-5 -10 -11z"/>
<path d="M6189 4438 c-3 -9 -5 -128 -2 -128 9 0 52 56 53 68 0 19 14 14 40
-13 29 -31 54 -34 45 -5 -4 12 -2 27 5 35 8 10 8 15 -1 21 -7 4 -19 -3 -30
-17 -17 -23 -18 -23 -38 -5 -17 15 -23 16 -36 6 -15 -13 -19 -8 -16 23 2 13
-16 26 -20 15z"/>
<path d="M6786 4421 c-11 -12 -16 -24 -12 -28 9 -9 39 22 34 37 -2 7 -10 4
-22 -9z"/>
<path d="M5257 4390 c-17 -17 -17 -21 -4 -61 8 -24 20 -45 26 -47 17 -6 13 49
-5 70 -14 14 -14 20 -4 33 18 22 8 26 -13 5z"/>
<path d="M5947 4404 c-13 -13 -7 -43 11 -56 27 -19 45 -55 32 -63 -6 -4 -16
-2 -23 3 -15 13 -54 -26 -49 -50 2 -12 -27 -36 -32 -26 -1 2 -9 13 -19 24 -15
18 -16 26 -6 47 13 28 5 77 -12 77 -6 0 -13 -9 -16 -20 -3 -11 -9 -17 -14 -14
-5 3 -9 1 -9 -5 0 -5 4 -12 9 -16 5 -3 13 -20 17 -37 3 -18 10 -39 14 -48 5
-8 14 -30 21 -48 8 -22 15 -30 22 -23 5 5 16 7 24 4 11 -4 9 -11 -11 -32 -27
-29 -43 -76 -28 -85 5 -3 17 3 27 14 10 11 31 20 47 20 19 0 28 4 26 12 -3 7
-15 13 -28 13 -30 0 -37 21 -10 28 23 6 59 79 41 85 -30 10 -2 62 32 62 17 0
19 5 13 32 -7 37 -9 39 -33 42 -10 2 -22 16 -29 35 -5 17 -13 28 -17 25z m-42
-224 c3 -5 -1 -10 -9 -10 -9 0 -16 5 -16 10 0 6 4 10 9 10 6 0 13 -4 16 -10z"/>
<path d="M1160 4355 c0 -8 -5 -15 -12 -15 -9 0 -9 -3 0 -12 9 -9 15 -8 26 7
14 20 12 35 -5 35 -5 0 -9 -7 -9 -15z"/>
<path d="M6100 4356 c0 -9 5 -16 10 -16 6 0 10 4 10 9 0 6 -4 13 -10 16 -5 3
-10 -1 -10 -9z"/>
<path d="M7560 4356 c0 -9 5 -16 10 -16 6 0 10 4 10 9 0 6 -4 13 -10 16 -5 3
-10 -1 -10 -9z"/>
<path d="M6076 4313 c-9 -9 -7 -41 3 -47 5 -3 11 6 14 19 4 25 -4 40 -17 28z"/>
<path d="M7016 4271 c-4 -7 -5 -15 -2 -18 9 -9 19 4 14 18 -4 11 -6 11 -12 0z"/>
<path d="M5230 4241 c0 -5 9 -13 20 -16 11 -3 24 -15 30 -25 13 -24 2 -80 -16
-80 -22 0 -36 -36 -19 -50 17 -15 19 -43 5 -71 -8 -15 -7 -19 4 -19 15 0 39
56 30 71 -3 5 -1 9 5 9 6 0 15 -9 21 -20 7 -13 21 -20 39 -20 24 0 28 3 24 20
-4 15 0 20 16 20 22 0 30 33 11 45 -5 3 -10 1 -10 -5 0 -6 -4 -8 -10 -5 -5 3
-10 17 -10 31 0 20 -4 25 -22 22 -18 -2 -27 5 -40 30 -9 18 -24 42 -34 53 -18
20 -44 26 -44 10z m110 -165 c-18 -23 -27 -20 -33 11 -7 39 2 48 26 25 17 -18
18 -23 7 -36z"/>
<path d="M6135 4220 c3 -5 10 -10 16 -10 5 0 9 5 9 10 0 6 -7 10 -16 10 -8 0
-12 -4 -9 -10z"/>
<path d="M7050 4220 c0 -5 10 -10 23 -10 18 0 19 2 7 10 -19 13 -30 13 -30 0z"/>
<path d="M5147 4203 c-14 -13 -7 -38 14 -51 24 -15 35 -10 23 10 -5 7 -7 21
-6 31 3 17 -18 24 -31 10z"/>
<path d="M202 4178 c3 -7 13 -15 22 -16 12 -3 17 1 14 10 -3 7 -13 15 -22 16
-12 3 -17 -1 -14 -10z"/>
<path d="M5217 4170 c3 -10 11 -25 19 -31 11 -9 14 -8 14 8 0 19 -17 43 -31
43 -4 0 -5 -9 -2 -20z"/>
<path d="M6140 4179 c0 -5 5 -7 10 -4 6 3 10 8 10 11 0 2 -4 4 -10 4 -5 0 -10
-5 -10 -11z"/>
<path d="M6985 4147 c-4 -10 -3 -23 4 -30 16 -16 23 -3 12 24 -8 22 -10 22
-16 6z"/>
<path d="M3 4131 c0 -11 4 -18 8 -15 4 2 9 -6 11 -18 4 -31 25 -33 30 -4 3 16
-1 31 -12 41 -23 21 -39 19 -37 -4z"/>
<path d="M7100 4117 c0 -8 10 -22 22 -33 12 -10 18 -14 15 -7 -4 6 -3 15 3 18
8 5 7 11 -1 21 -15 18 -39 18 -39 1z"/>
<path d="M6900 4090 c0 -5 5 -10 11 -10 5 0 7 5 4 10 -3 6 -8 10 -11 10 -2 0
-4 -4 -4 -10z"/>
<path d="M4937 4064 c-8 -8 3 -34 14 -34 11 0 12 27 0 34 -4 3 -11 3 -14 0z"/>
<path d="M5424 4056 c-5 -12 -3 -21 4 -24 7 -2 12 -12 12 -23 0 -10 5 -19 10
-19 15 0 25 31 13 39 -5 3 -15 15 -21 26 -10 20 -11 20 -18 1z"/>
<path d="M6206 4048 c9 -31 10 -32 31 -23 12 5 14 9 6 12 -7 3 -13 11 -13 19
0 8 -7 14 -16 14 -11 0 -14 -6 -8 -22z"/>
<path d="M5764 4024 c3 -9 6 -18 6 -20 0 -3 5 -2 10 1 16 10 12 35 -6 35 -11
0 -14 -5 -10 -16z"/>
<path d="M6294 4016 c-7 -7 -14 -22 -16 -32 -4 -20 -25 -24 -71 -12 -27 7 -28
6 -22 -23 6 -27 4 -29 -21 -29 -27 0 -27 -1 -8 -15 16 -13 17 -16 4 -25 -22
-14 -27 -13 -44 12 -12 16 -19 19 -27 11 -8 -8 -6 -14 10 -23 12 -6 19 -15 16
-21 -4 -5 -1 -8 7 -7 7 2 14 -6 16 -18 3 -20 6 -20 48 -11 36 9 44 14 41 28
-7 28 17 29 49 3 16 -13 38 -23 50 -24 11 0 29 -9 39 -20 10 -11 26 -22 36
-25 25 -8 24 -22 -1 -30 -26 -8 -16 -25 16 -25 13 0 25 -3 25 -7 1 -5 3 -18 4
-29 1 -12 6 -27 11 -35 14 -23 12 -49 -5 -49 -9 0 -33 18 -54 40 -20 22 -41
40 -45 40 -11 0 -12 -89 -1 -95 5 -4 9 -14 9 -24 0 -15 9 -17 58 -16 31 1 62
3 69 4 13 1 12 83 -2 114 -4 11 -3 23 4 30 20 20 12 35 -24 48 -19 7 -35 17
-35 22 0 4 4 5 10 2 14 -9 52 14 47 28 -2 7 -25 12 -58 12 l-54 0 2 53 c2 41
-1 52 -13 52 -11 0 -13 -6 -9 -20 8 -25 -11 -27 -43 -4 -12 8 -27 12 -32 9
-12 -8 -13 5 -1 24 5 7 13 11 19 7 6 -3 13 -2 17 4 3 6 -1 13 -9 16 -20 8 -21
30 -1 38 8 3 15 12 15 21 0 18 -11 19 -26 1z m111 -406 c3 -5 1 -10 -4 -10 -6
0 -11 5 -11 10 0 6 2 10 4 10 3 0 8 -4 11 -10z"/>
<path d="M6340 3980 c0 -5 7 -10 16 -10 8 0 12 5 9 10 -3 6 -10 10 -16 10 -5
0 -9 -4 -9 -10z"/>
<path d="M5668 3963 c-3 -10 2 -33 9 -51 11 -27 17 -31 28 -22 18 15 31 -6 15
-25 -9 -11 -7 -16 9 -24 31 -17 42 -13 35 13 -4 17 0 27 13 34 10 6 14 14 10
18 -4 4 -13 2 -19 -4 -20 -20 -30 -13 -23 17 5 26 4 28 -19 24 -18 -4 -26 0
-31 16 -8 26 -21 27 -27 4z"/>
<path d="M6980 3935 c7 -8 20 -15 29 -15 13 1 13 3 -3 15 -26 19 -42 19 -26 0z"/>
<path d="M0 3895 c0 -16 16 -20 24 -6 3 5 -1 11 -9 15 -9 3 -15 0 -15 -9z"/>
<path d="M6695 3891 c-6 -11 9 -23 19 -14 9 9 7 23 -3 23 -6 0 -12 -4 -16 -9z"/>
<path d="M6940 3860 c0 -19 1 -31 3 -29 1 2 8 11 15 20 10 13 9 19 -3 29 -13
11 -15 8 -15 -20z"/>
<path d="M5835 3861 c-26 -4 -35 -9 -27 -14 6 -5 12 -5 12 -1 0 3 7 0 17 -7
13 -11 17 -11 20 -1 3 6 11 12 19 12 8 0 14 5 14 10 0 6 -3 9 -7 9 -5 -1 -26
-5 -48 -8z"/>
<path d="M6520 3855 c-7 -9 -8 -15 -2 -15 5 0 12 7 16 15 3 8 4 15 2 15 -2 0
-9 -7 -16 -15z"/>
<path d="M6021 3808 c-1 -21 4 -38 9 -38 11 0 11 14 0 50 -7 22 -8 21 -9 -12z"/>
<path d="M5330 3819 c0 -5 18 -29 39 -52 36 -38 42 -40 55 -27 14 14 14 19 -1
53 -10 20 -23 37 -30 37 -17 0 -16 -11 3 -38 27 -39 4 -39 -32 0 -19 21 -34
33 -34 27z"/>
<path d="M5806 3821 c-3 -5 0 -21 7 -35 12 -22 16 -24 32 -12 17 12 17 14 -3
34 -25 25 -28 26 -36 13z"/>
<path d="M6580 3822 c0 -5 3 -12 7 -15 3 -4 8 -19 9 -34 3 -26 2 -27 -11 -9
-13 18 -16 18 -40 2 -20 -13 -25 -24 -23 -56 1 -42 16 -51 39 -24 7 9 22 14
36 11 13 -2 26 0 29 4 9 15 22 10 29 -11 7 -23 25 -27 25 -5 0 8 6 15 14 15
16 0 28 37 14 46 -5 3 -9 20 -8 38 3 46 1 53 -11 34 -5 -10 -16 -18 -23 -18
-7 0 -12 -10 -12 -22 1 -13 -6 -24 -15 -26 -21 -4 -36 58 -17 70 8 5 3 8 -14
8 -16 0 -28 -4 -28 -8z m50 -102 c0 -5 -4 -10 -10 -10 -5 0 -10 5 -10 10 0 6
5 10 10 10 6 0 10 -4 10 -10z"/>
<path d="M5750 3791 c0 -3 9 -14 20 -24 19 -16 20 -16 20 2 0 10 -9 21 -20 24
-11 3 -20 2 -20 -2z"/>
<path d="M6222 3758 c5 -15 65 -34 75 -24 4 3 -2 13 -13 21 -24 18 -67 20 -62
3z"/>
<path d="M5970 3752 c0 -7 -7 -12 -16 -12 -14 0 -14 -2 -3 -16 12 -14 14 -13
21 7 5 12 6 24 3 27 -3 3 -5 0 -5 -6z"/>
<path d="M6886 3724 c-4 -11 -1 -14 11 -12 9 2 18 9 21 16 6 18 -25 15 -32 -4z"/>
<path d="M6116 3695 c-9 -14 -23 -25 -31 -25 -27 0 -15 -20 15 -26 31 -7 38
-22 19 -41 -7 -7 -9 -19 -5 -29 5 -13 14 -15 41 -11 25 4 37 2 44 -10 4 -9 14
-13 20 -9 8 5 4 14 -11 27 -16 14 -19 22 -10 25 19 8 15 42 -5 40 -10 0 -19 8
-21 19 -3 11 -12 30 -22 42 l-18 23 -16 -25z"/>
<path d="M6895 3660 c9 -31 25 -50 25 -29 0 7 -8 23 -16 34 -16 19 -16 19 -9
-5z"/>
<path d="M6800 3653 c-14 -9 -29 -22 -35 -29 -5 -7 -24 -15 -42 -19 -24 -5
-34 -2 -41 12 -12 21 -17 18 -26 -19 -6 -26 -4 -28 21 -27 46 2 67 12 119 56
49 43 51 59 4 26z"/>
<path d="M6557 3643 c-9 -17 -17 -65 -12 -73 3 -5 15 0 25 10 11 11 27 20 35
20 18 0 20 21 3 38 -13 13 -45 16 -51 5z"/>
<path d="M5979 3585 c-12 -20 -28 -34 -37 -33 -17 3 -51 -47 -39 -58 4 -4 23
0 42 9 20 9 53 20 75 23 66 11 67 69 3 89 -19 5 -27 0 -44 -30z"/>
<path d="M5800 3520 c0 -5 5 -10 10 -10 6 0 10 5 10 10 0 6 -4 10 -10 10 -5 0
-10 -4 -10 -10z"/>
<path d="M6684 3515 c-9 -6 -13 -14 -8 -17 27 -15 41 -14 52 2 9 15 7 19 -8
23 -11 3 -27 -1 -36 -8z"/>
<path d="M6634 3503 c-3 -10 -10 -26 -15 -35 -5 -10 -9 -24 -9 -32 0 -8 -4
-16 -9 -18 -12 -4 -27 -112 -23 -171 2 -26 7 -45 12 -42 4 3 6 13 3 23 -4 18
33 61 46 52 3 -3 7 7 9 23 2 17 -1 27 -9 27 -7 0 -4 6 7 14 15 12 17 17 7 27
-15 16 -17 55 -3 64 13 8 13 85 0 85 -6 0 -13 -8 -16 -17z"/>
<path d="M6475 3502 c-16 -11 -14 -130 2 -136 18 -7 17 -26 -2 -26 -8 0 -15
-5 -15 -11 0 -6 7 -8 16 -5 13 5 14 1 9 -27 -4 -17 -11 -36 -16 -42 -15 -16
-10 -44 10 -55 11 -5 21 -10 24 -10 7 0 -4 305 -11 312 -4 4 -12 4 -17 0z"/>
<path d="M6383 3493 c-25 -5 -26 -8 -13 -38 5 -11 9 -15 9 -8 1 6 15 16 32 22
17 6 28 15 24 21 -6 10 -13 11 -52 3z"/>
<path d="M6301 3468 c0 -7 4 -22 9 -33 7 -17 9 -15 9 13 1 17 -3 32 -9 32 -5
0 -10 -6 -9 -12z"/>
<path d="M5960 3460 c-12 -8 -10 -10 8 -10 13 0 20 4 17 10 -7 12 -6 12 -25 0z"/>
<path d="M6183 3463 c-20 -7 -15 -23 7 -23 11 0 20 4 20 9 0 13 -12 19 -27 14z"/>
<path d="M6415 3430 c-8 -12 4 -74 13 -66 3 3 7 19 8 35 4 31 -10 50 -21 31z"/>
<path d="M6193 3423 c-13 -5 -19 -84 -7 -96 17 -16 34 8 34 48 0 45 -6 56 -27
48z"/>
<path d="M6768 3337 c-3 -14 -2 -31 2 -38 12 -18 23 27 12 47 -8 14 -10 12
-14 -9z"/>
<path d="M6475 3170 c-7 -12 2 -30 16 -30 12 0 12 27 0 35 -5 3 -12 1 -16 -5z"/>
<path d="M6592 3158 c5 -15 28 -23 28 -10 0 5 -7 13 -16 16 -10 4 -14 1 -12
-6z"/>
<path d="M6769 3133 c-3 -62 -7 -77 -24 -89 -15 -11 -16 -16 -6 -28 16 -19 6
-36 -20 -36 -18 0 -20 -6 -17 -57 2 -48 6 -58 21 -57 11 1 20 -9 25 -30 6 -21
14 -31 28 -31 17 0 19 7 18 90 -1 149 -8 265 -16 265 -4 0 -9 -12 -9 -27z"/>
<path d="M6477 3114 c-4 -4 1 -13 11 -20 14 -10 15 -15 5 -25 -17 -17 -16 -29
2 -29 17 0 20 -31 4 -47 -7 -7 -3 -12 16 -17 48 -12 60 14 23 54 -12 13 -22
37 -22 54 -1 29 -23 46 -39 30z"/>
<path d="M6661 3004 c0 -11 3 -14 6 -6 3 7 2 16 -1 19 -3 4 -6 -2 -5 -13z"/>
<path d="M6600 2980 c0 -5 5 -10 10 -10 6 0 10 5 10 10 0 6 -4 10 -10 10 -5 0
-10 -4 -10 -10z"/>
<path d="M5060 2074 c0 -2 10 -19 22 -38 16 -24 36 -38 70 -49 26 -8 46 -11
42 -6 -3 5 0 9 5 9 20 0 11 22 -10 27 -11 3 -45 18 -75 33 -30 16 -54 26 -54
24z"/>
<path d="M83 2063 c-76 -4 -83 -6 -83 -24 0 -20 3 -21 92 -14 51 4 97 11 102
15 11 11 -1 31 -17 28 -7 -1 -49 -4 -94 -5z"/>
<path d="M6415 2049 c-82 -4 -191 -13 -242 -19 -50 -5 -173 -10 -272 -10 -110
0 -181 -4 -181 -10 0 -6 49 -8 128 -5 70 3 273 7 452 10 179 3 341 9 360 13
l35 8 -40 7 c-22 4 -51 8 -65 11 -14 2 -92 0 -175 -5z"/>
<path d="M5218 1973 c7 -3 16 -2 19 1 4 3 -2 6 -13 5 -11 0 -14 -3 -6 -6z"/>
<path d="M0 1773 c0 -13 257 -16 265 -4 4 8 -35 11 -129 11 -75 0 -136 -3
-136 -7z"/>
<path d="M5507 1723 c-4 -3 -7 -11 -7 -17 0 -6 5 -5 12 2 6 6 9 14 7 17 -3 3
-9 2 -12 -2z"/>
<path d="M5645 1250 c4 -19 14 -48 21 -65 14 -30 14 -30 10 19 -2 28 -11 55
-21 65 -16 15 -17 14 -10 -19z"/>
<path d="M1858 393 c7 -3 16 -2 19 1 4 3 -2 6 -13 5 -11 0 -14 -3 -6 -6z"/>
<path d="M698 383 c18 -2 45 -2 60 0 15 2 0 4 -33 4 -33 0 -45 -2 -27 -4z"/>
<path d="M1010 340 c0 -13 70 -13 90 0 11 7 0 10 -37 10 -29 0 -53 -4 -53 -10z"/>
<path d="M1373 302 c-24 -2 -43 -7 -43 -13 0 -12 137 -12 145 1 3 6 3 10 -2
11 -34 3 -64 4 -100 1z"/>
<path d="M1260 255 c-31 -18 -7 -18 40 0 31 12 32 14 10 14 -14 0 -36 -6 -50
-14z"/>
<path d="M1164 224 c1 -8 8 -19 14 -23 6 -4 -15 -7 -47 -6 -42 0 -62 -5 -75
-17 -10 -10 -28 -18 -41 -18 -13 0 -27 -4 -30 -10 -3 -5 -25 -10 -48 -11 -23
0 -85 -6 -137 -14 l-95 -14 83 4 c177 10 247 18 254 29 5 8 8 7 8 -1 0 -9 18
-13 58 -12 42 1 51 3 32 9 -19 5 -21 9 -10 13 28 12 138 26 158 20 11 -3 29 0
39 6 15 9 13 10 -14 11 -18 0 -33 4 -33 9 0 6 -21 11 -47 13 -32 2 -47 7 -45
16 1 6 -4 12 -12 12 -8 0 -13 -7 -12 -16z"/>
<path d="M675 220 c-4 -6 8 -10 29 -10 19 0 38 5 41 10 4 6 -8 10 -29 10 -19
0 -38 -4 -41 -10z"/>
<path d="M504 205 c3 -9 -5 -20 -22 -29 l-27 -15 47 -1 c26 0 50 5 53 10 4 6
11 8 16 5 12 -8 31 4 24 16 -4 5 -14 5 -26 -1 -21 -12 -26 -1 -7 18 9 9 4 12
-26 12 -30 0 -37 -3 -32 -15z"/>
<path d="M608 213 c7 -3 16 -2 19 1 4 3 -2 6 -13 5 -11 0 -14 -3 -6 -6z"/>
<path d="M6000 195 c-14 -8 -34 -14 -45 -15 -11 0 -45 -21 -75 -46 -73 -60
-103 -75 -147 -72 -22 1 -38 -3 -41 -10 -6 -18 -49 -15 -56 4 -3 9 -13 14 -20
11 -8 -3 -17 1 -20 10 -5 12 -10 10 -28 -12 -21 -27 -22 -27 -29 -6 -17 45
-65 19 -98 -53 -2 -5 42 -7 105 -3 123 6 216 31 297 79 29 18 81 41 116 53 56
18 64 24 67 48 1 15 2 27 1 27 -1 -1 -13 -7 -27 -15z"/>
<path d="M428 193 c7 -3 16 -2 19 1 4 3 -2 6 -13 5 -11 0 -14 -3 -6 -6z"/>
<path d="M635 190 c-3 -5 -1 -10 4 -10 6 0 11 5 11 10 0 6 -2 10 -4 10 -3 0
-8 -4 -11 -10z"/>
<path d="M845 180 c3 -5 8 -10 11 -10 2 0 4 5 4 10 0 6 -5 10 -11 10 -5 0 -7
-4 -4 -10z"/>
<path d="M1489 152 c-1 -4 -1 -10 0 -14 0 -3 -67 -6 -150 -6 -83 0 -153 -3
-156 -6 -4 -3 73 -6 170 -6 148 0 176 2 171 14 -6 16 -33 30 -35 18z"/>
<path d="M668 113 c6 -2 18 -2 25 0 6 3 1 5 -13 5 -14 0 -19 -2 -12 -5z"/>
<path d="M35 90 c3 -6 20 -10 37 -10 38 0 34 5 -10 13 -21 4 -31 3 -27 -3z"/>
<path d="M2138 73 c7 -3 16 -2 19 1 4 3 -2 6 -13 5 -11 0 -14 -3 -6 -6z"/>
<path d="M2083 63 c9 -2 23 -2 30 0 6 3 -1 5 -18 5 -16 0 -22 -2 -12 -5z"/>
<path d="M5128 30 l-5 -30 71 1 c53 0 66 3 51 10 -11 5 -33 18 -50 28 -44 29
-62 26 -67 -9z"/>
<path d="M5370 33 c0 -14 2 -15 9 -4 5 8 17 11 32 6 19 -5 21 -4 9 4 -23 17
-50 13 -50 -6z"/>
<path d="M1758 3 c7 -3 16 -2 19 1 4 3 -2 6 -13 5 -11 0 -14 -3 -6 -6z"/>
</g>
</svg>
